<svg width="53" height="17" viewBox="0 0 53 17" fill="none" xmlns="http://www.w3.org/2000/svg" id="svg-692391660_6389">
<ellipse cx="7.78615" cy="8.50001" rx="4.24709" ry="4.24708" fill="#FD452C"/>
<path d="M9.03715 6.27072V6.59095C9.03715 6.72148 8.97564 6.84504 8.87043 6.92936C8.86014 6.93761 8.84947 6.94547 8.83837 6.95291L8.19626 7.38463L7.17188 6.95295C7.31728 6.85413 7.46081 6.75667 7.59805 6.66348C8.08268 6.33435 8.48904 6.05852 8.62297 5.96553C8.73315 5.89099 8.83544 5.82301 8.90751 5.7778C8.95599 5.74728 9.02224 5.77741 9.02598 5.83187C9.03303 5.93192 9.03715 6.09147 9.03715 6.27072Z" fill="white" fill-opacity="0.79"/>
<path d="M9.77622 8.9988C9.77622 9.07372 9.74061 9.14093 9.68469 9.18652L9.6445 9.21316L9.5335 9.28785L9.32766 9.42639L9.23282 9.49014H9.23243L8.67576 9.86486C8.62493 9.89943 8.57398 9.93408 8.52311 9.96865C8.34872 10.0872 8.1754 10.2049 8.01069 10.3168C7.51518 10.6532 7.09726 10.9369 6.96106 11.0315C6.86641 11.0955 6.77757 11.1547 6.7087 11.1988C6.69741 11.206 6.68666 11.2128 6.67652 11.2192C6.62808 11.2497 6.56179 11.2196 6.55809 11.1651C6.55724 11.1534 6.55647 11.1409 6.55574 11.1276C6.55011 11.0274 6.54688 10.8845 6.54688 10.7263V10.406C6.54688 10.2627 6.62103 10.1279 6.7457 10.0441L6.82559 9.99038L7.49225 9.54217C7.51838 9.55173 7.54497 9.56028 7.57199 9.56787L7.49946 9.53731L8.2889 9.00651C8.41732 8.92037 8.43058 8.7469 8.31708 8.64454L8.03793 8.39307C8.0135 8.37068 7.98907 8.34906 7.96544 8.32702C7.95962 8.32201 7.95384 8.31696 7.94806 8.31156C7.94806 8.31156 7.94791 8.31133 7.94764 8.31079C7.92817 8.28878 7.91865 8.25865 7.92443 8.22697C7.93314 8.17945 7.97912 8.14276 8.03088 8.1416C8.04333 8.1416 8.05574 8.14276 8.06692 8.14623C8.06857 8.14665 8.06981 8.14738 8.07146 8.14777L8.0868 8.15397H8.08723L9.00713 8.526L9.59439 8.76351L9.63706 8.78055C9.63706 8.78055 9.63748 8.78055 9.63787 8.78093C9.6564 8.79042 9.67363 8.80186 9.68912 8.81504C9.74262 8.86048 9.77622 8.92604 9.77622 8.9988Z" fill="white"/>
<path d="M7.26384 8.35261L7.54298 8.60408C7.56741 8.62648 7.59185 8.64813 7.61547 8.67014C7.62125 8.67515 7.62703 8.68016 7.63285 8.68559C7.63285 8.68559 7.63297 8.68586 7.63328 8.68637C7.65274 8.70837 7.66226 8.73851 7.65648 8.77019C7.64777 8.81771 7.60179 8.8544 7.55003 8.85555C7.53758 8.85555 7.52517 8.8544 7.514 8.85093C7.51234 8.85054 7.51107 8.84977 7.50941 8.84939L7.49411 8.84318H7.49369L6.75141 8.543L6.0518 8.26004L5.98652 8.23364L5.94385 8.21665C5.94385 8.21665 5.94343 8.21665 5.94301 8.21626C5.86061 8.17414 5.80469 8.09224 5.80469 7.9984C5.80469 7.92344 5.8403 7.85622 5.89622 7.81063L5.93638 7.78396L6.25321 7.57076L6.29688 7.54143L6.34806 7.50702H6.34848L6.90515 7.1323C6.99306 7.07252 7.0812 7.01259 7.16872 6.95312L8.1931 7.38481L8.17973 7.39379L7.29197 7.99065C7.16359 8.07678 7.15034 8.25025 7.26384 8.35261Z" fill="white"/>
<path d="M48.1772 8.47538C48.1772 9.95026 47.2141 11.0211 45.7797 11.0211C44.3519 11.0211 43.4023 9.957 43.4023 8.47538C43.4023 7.00049 44.3587 5.92969 45.7864 5.92969C47.2141 5.92969 48.1772 6.99376 48.1772 8.47538ZM47.268 8.47538C47.268 7.43151 46.6888 6.76478 45.7864 6.76478C44.884 6.76478 44.3048 7.43151 44.3048 8.47538C44.3048 9.51925 44.8772 10.1792 45.7864 10.1792C46.6888 10.1792 47.268 9.51925 47.268 8.47538Z" fill="white"/>
<path d="M39.9046 10.9406H39.0156L40.7936 6.01758H41.6758L43.4537 10.9406H42.5446L42.1472 9.80244H40.3087L39.9046 10.9406ZM41.1303 7.48573L40.5579 9.08184H41.9048L41.3391 7.48573C41.2987 7.3645 41.2515 7.20961 41.2381 7.10859C41.2246 7.20961 41.1774 7.3645 41.1303 7.48573Z" fill="white"/>
<path d="M36.654 10.9406H34.8828V6.01758H36.654C38.0683 6.01758 39.065 7.02777 39.065 8.48919C39.065 9.93713 38.0818 10.9406 36.654 10.9406ZM36.5732 6.819H35.7448V10.1459H36.5732C37.543 10.1459 38.1558 9.47244 38.1558 8.48919C38.1558 7.4992 37.5295 6.819 36.5732 6.819Z" fill="white"/>
<path d="M32.6552 7.59965V8.31352H32.332C31.7393 8.31352 31.3958 8.67719 31.3958 9.32371V10.94H30.5742V7.61985H31.3285L31.3756 8.00373C31.5777 7.59965 32.1501 7.48516 32.6552 7.59965Z" fill="white"/>
<path d="M28.0092 11.0282C27.2954 11.0282 26.8711 10.6106 26.8711 9.99104C26.8711 9.34452 27.356 8.99431 28.1035 8.9337L29.0531 8.85962V8.78554C29.0531 8.32759 28.7703 8.15249 28.3662 8.15249C27.915 8.15249 27.6523 8.36126 27.659 8.70473H26.9586C26.9519 7.99085 27.5446 7.5127 28.4066 7.5127C29.3427 7.5127 29.8545 8.038 29.8545 8.92023V10.9406H29.1339L29.0733 10.449C28.9319 10.7925 28.5345 11.0282 28.0092 11.0282ZM28.2786 10.4086C28.6288 10.4086 29.0598 10.2133 29.0598 9.5937V9.4186L28.3662 9.47921C27.8813 9.52635 27.7062 9.68798 27.7062 9.95737C27.7062 10.247 27.9082 10.4086 28.2786 10.4086Z" fill="white"/>
<path d="M26.2787 10.9403H25.457V5.92969H26.2787V10.9403Z" fill="white"/>
<path d="M22.8921 11.0282C22.1782 11.0282 21.7539 10.6106 21.7539 9.99104C21.7539 9.34452 22.2388 8.99431 22.9863 8.9337L23.9359 8.85962V8.78554C23.9359 8.32759 23.6531 8.15249 23.249 8.15249C22.7978 8.15249 22.5351 8.36126 22.5419 8.70473H21.8415C21.8347 7.99085 22.4274 7.5127 23.2894 7.5127C24.2255 7.5127 24.7373 8.038 24.7373 8.92023V10.9406H24.0167L23.9561 10.449C23.8147 10.7925 23.4174 11.0282 22.8921 11.0282ZM23.1614 10.4086C23.5116 10.4086 23.9427 10.2133 23.9427 9.5937V9.4186L23.249 9.47921C22.7641 9.52635 22.589 9.68798 22.589 9.95737C22.589 10.247 22.791 10.4086 23.1614 10.4086Z" fill="white"/>
<path d="M18.2383 9.27043C18.2383 8.22657 18.9252 7.5127 19.9017 7.5127C20.7368 7.5127 21.3362 8.038 21.4238 8.81921H20.6493C20.555 8.42861 20.2519 8.24004 19.895 8.24004C19.3832 8.24004 19.0599 8.62391 19.0599 9.27043C19.0599 9.91022 19.3764 10.2941 19.8883 10.2941C20.2519 10.2941 20.555 10.0988 20.6493 9.72166H21.4305C21.3295 10.5029 20.6964 11.0282 19.8344 11.0282C18.8983 11.0282 18.2383 10.3143 18.2383 9.27043Z" fill="white"/>
<path d="M14.42 7.3911C14.42 6.5358 15.0935 5.92969 16.1104 5.92969C17.0802 5.92969 17.6998 6.5156 17.7402 7.3709H16.8916C16.8714 6.91294 16.5481 6.6907 16.0902 6.6907C15.5783 6.6907 15.2753 6.96009 15.2753 7.35743C15.2753 7.69416 15.4975 7.86926 15.8545 7.96355L16.6559 8.17232C17.4977 8.39456 17.9018 8.9064 17.9018 9.56639C17.9018 10.4419 17.1812 11.0278 16.1104 11.0278C15.0935 11.0278 14.393 10.4688 14.3594 9.58659H15.2079C15.2079 10.0041 15.5649 10.2533 16.1238 10.2533C16.703 10.2533 17.0465 9.99067 17.0465 9.59333C17.0465 9.2768 16.8377 9.08823 16.474 8.98721L15.6726 8.7717C14.7837 8.52926 14.42 8.01742 14.42 7.3911Z" fill="white"/>
</svg>