<svg width="62" height="17" viewBox="0 0 62 17" fill="none" xmlns="http://www.w3.org/2000/svg" id="svg1202535150_8140">
<path d="M12.8573 8.51539C12.8573 8.75041 12.8418 8.98286 12.8135 9.21016C12.7835 9.45119 12.738 9.68621 12.6797 9.91694C12.6797 9.9178 12.6797 9.91866 12.6797 9.92037C12.5493 10.4239 12.3529 10.8999 12.099 11.3391C11.9506 11.1804 11.7928 10.9865 11.6213 10.7515C11.5501 10.652 11.478 10.5491 11.406 10.4427C11.6684 9.8629 11.8151 9.22045 11.8168 8.54284C11.8211 6.72957 10.7858 5.15647 9.27191 4.38879C9.24789 4.37592 9.22388 4.36392 9.199 4.35277C8.58486 4.04741 7.89438 3.875 7.16359 3.87329C5.59735 3.869 4.15978 4.64869 3.30375 5.93873C3.26344 5.99792 3.22484 6.05881 3.18796 6.12057C3.19825 6.11543 3.20769 6.11028 3.21798 6.10513C2.88603 6.64723 2.66131 7.26309 2.57467 7.92355C2.5721 7.9244 2.57039 7.92526 2.56781 7.92612C2.55666 8.01275 2.54723 8.10024 2.54122 8.18859C2.53522 8.28551 2.53179 8.3833 2.53093 8.48108C2.53093 8.64662 2.53865 8.81045 2.55666 8.97085C2.76166 11.1658 4.49773 12.9182 6.6884 13.1463C6.75702 13.3102 6.82392 13.4723 6.88997 13.631C6.9663 13.8162 7.04436 14.0006 7.1207 14.1816C6.06997 14.1722 5.08785 13.8771 4.24727 13.3702C4.24641 13.3685 4.24555 13.3685 4.24384 13.3676C4.09116 13.2759 3.94277 13.1764 3.79953 13.0709C3.79953 13.0709 3.79781 13.07 3.79695 13.0691C3.30461 12.7037 2.87317 12.2611 2.52149 11.7594C2.46917 11.6847 2.41857 11.6093 2.36967 11.5329C2.34909 11.5003 2.3285 11.4669 2.30877 11.4334C2.28476 11.3948 2.2616 11.3554 2.23844 11.3159C1.76154 10.4805 1.48963 9.5138 1.49221 8.48451C1.49564 7.11384 1.98541 5.85725 2.79597 4.87685C2.85258 4.80908 2.91177 4.74218 2.97181 4.67613C2.97352 4.67356 2.9761 4.67185 2.97781 4.66927C3.00526 4.63925 3.03185 4.61009 3.06016 4.58092C3.09361 4.5449 3.12792 4.50973 3.16308 4.47542C3.19053 4.44797 3.21969 4.42053 3.24886 4.39308C3.27716 4.36563 3.30633 4.33818 3.33549 4.31159C4.3502 3.38009 5.70457 2.81312 7.19018 2.81741C10.3286 2.82598 12.8658 5.37691 12.8573 8.51539Z" fill="url(#svg1202535150_8140_paint0_linear_1045_2525)"/>
<path d="M12.0969 11.3394C11.8893 11.6988 11.644 12.0325 11.3661 12.3361C11.1328 12.1097 10.9106 11.8438 10.6953 11.5547C10.3788 11.1302 10.0777 10.6584 9.78268 10.1944L9.76381 10.1643C9.32979 9.47643 8.84002 8.69675 8.28421 8.05258C7.68122 7.35438 7.09023 6.92122 6.47695 6.7308C6.27109 6.66733 6.05323 6.62873 5.82592 6.61586C6.50611 6.9581 7.14427 7.53965 7.76613 8.3811C8.39228 9.22855 8.9318 10.2433 9.40613 11.1396L9.41128 11.149C9.59484 11.4981 9.79126 11.8678 9.99025 12.2204C10.1661 12.5326 10.3462 12.8319 10.5238 13.0901C10.1944 13.332 9.83758 13.5378 9.45931 13.7034C9.27747 13.4341 9.10164 13.1399 8.92666 12.8293C8.75082 12.5197 8.5767 12.1938 8.39829 11.8592L8.32624 11.7237C7.91452 10.9406 7.40245 9.96878 6.83977 9.18995C6.23335 8.35022 5.64323 7.83128 5.03595 7.60312C4.87297 7.54394 4.70314 7.50363 4.52902 7.48218C5.18005 7.92049 5.79076 8.63756 6.38689 9.66171C7.00017 10.7142 7.5071 11.9253 7.99858 13.0995C8.00373 13.1115 8.00887 13.1244 8.01402 13.1364L8.02174 13.1561C8.13925 13.4469 8.26191 13.7411 8.39486 14.0508C7.99686 14.1383 7.58258 14.1837 7.15799 14.1829C7.14513 14.1829 7.13141 14.1829 7.11854 14.182C7.0422 14.001 6.96415 13.8166 6.88781 13.6313C6.82176 13.4727 6.75486 13.3105 6.68624 13.1467C6.29768 12.2135 5.86538 11.2168 5.38848 10.3745C4.77776 9.29202 4.18335 8.62555 3.5735 8.33649C3.25356 8.18553 2.91218 8.13578 2.53906 8.18896C2.54507 8.10062 2.5545 8.01313 2.56565 7.92649C2.56823 7.92564 2.56994 7.92478 2.57251 7.92392C2.65915 7.26346 2.88387 6.6476 3.21582 6.10551C3.20553 6.11065 3.19609 6.1158 3.1858 6.12095C3.22268 6.05919 3.26128 5.99829 3.30159 5.9391C4.14218 5.57113 4.93302 5.38672 5.66638 5.38672C6.07638 5.38672 6.46751 5.44333 6.84149 5.55912C7.65806 5.81302 8.41201 6.34139 9.14624 7.17511C9.77325 7.88618 10.3136 8.73792 10.7905 9.49016L10.8008 9.5056C11.0221 9.85813 11.216 10.1652 11.4038 10.4431C11.4759 10.5495 11.5479 10.6524 11.6191 10.7519C11.7907 10.9869 11.9485 11.1808 12.0969 11.3394Z" fill="url(#svg1202535150_8140_paint1_linear_1045_2525)"/>
<path d="M15.8065 5.18359H21.1844L21.085 6.29284H18.9965L18.5069 11.8926H17.3288L17.8184 6.29284H15.707L15.8065 5.18359Z" fill="white"/>
<path d="M20.8315 10.3928C20.8009 10.7906 21.061 11.0201 21.5583 11.0201C21.9714 11.0201 22.3233 10.8518 22.3539 10.4999C22.3768 10.2398 22.2085 10.1021 21.9178 10.0256L21.1452 9.82675C20.296 9.59725 19.9977 9.10765 20.0512 8.52625C20.1277 7.6618 20.9004 7.0957 21.8719 7.0957C22.8435 7.0957 23.4707 7.6618 23.4325 8.5645H22.4151C22.4457 8.1667 22.1932 7.92955 21.7725 7.92955C21.3517 7.92955 21.0993 8.1514 21.0763 8.46505C21.0534 8.75575 21.2676 8.87815 21.6042 8.96995L22.3845 9.1612C23.1112 9.3448 23.4784 9.78085 23.4172 10.4387C23.3407 11.3185 22.5681 11.8922 21.5047 11.8922C20.4414 11.8922 19.7758 11.3185 19.8141 10.4158H20.8315V10.3928Z" fill="white"/>
<path d="M23.8787 10.0948L24.1235 7.25667H25.2404L25.0262 9.69702C24.9421 10.6303 25.3169 10.9057 25.883 10.9057C26.6174 10.9057 26.9693 10.4467 27.0382 9.62817L27.2447 7.24902H28.3616L27.9638 11.7778H26.9158L26.8928 11.1888C26.5868 11.6095 25.9748 11.8926 25.3628 11.8926C24.2918 11.8926 23.764 11.1582 23.8634 10.0719L23.8787 10.0948Z" fill="white"/>
<path d="M28.7266 11.8843L29.1244 7.35547H30.1648L30.203 7.94452C30.5396 7.47787 31.0981 7.21777 31.7177 7.21777C32.9034 7.21777 33.3701 7.96747 33.2706 9.09967L33.0258 11.8919H31.9166L32.1384 9.36742C32.2226 8.39587 31.6718 8.23522 31.2817 8.23522C30.7921 8.23522 30.1495 8.50297 30.0653 9.44392L29.8511 11.8843H28.7342H28.7266Z" fill="white"/>
<path d="M33.5932 10.4781C33.6697 9.59839 34.3735 9.11644 35.3986 9.03994L36.6991 8.94049V8.84104C36.7603 8.22139 36.4008 7.97659 35.85 7.97659C35.238 7.97659 34.8555 8.25964 34.8172 8.72629H33.861C33.9375 7.75474 34.8019 7.10449 35.9724 7.10449C37.2499 7.10449 37.8849 7.82359 37.7778 9.02464L37.5406 11.7786H36.5614L36.5385 11.1054C36.3013 11.5721 35.7352 11.8934 35.0161 11.8934C34.0446 11.8934 33.5167 11.3273 33.5932 10.4781ZM36.6226 9.93499L36.6456 9.69784L35.6893 9.78199C35.0238 9.84319 34.7637 10.065 34.7331 10.4322C34.7025 10.83 34.9549 11.0442 35.4598 11.0442C35.9341 11.0442 36.5461 10.7765 36.6226 9.93499Z" fill="white"/>
<path d="M38.1991 11.8843L38.5969 7.35547H39.622V7.86802C39.9356 7.46257 40.4328 7.21777 40.9607 7.21777C41.7104 7.21777 42.177 7.54672 42.3836 8.08222C42.6513 7.54672 43.2174 7.21777 43.9059 7.21777C45.0075 7.21777 45.5277 7.87567 45.4359 8.92372L45.1758 11.8843H44.0895L44.3267 9.17617C44.3802 8.53357 44.0666 8.19697 43.5234 8.19697C42.9803 8.19697 42.5366 8.54887 42.4754 9.29092L42.2459 11.8843H41.1519L41.3891 9.17617C41.4426 8.53357 41.129 8.19697 40.5935 8.19697C40.058 8.19697 39.599 8.54887 39.5378 9.28327L39.3083 11.8919H38.1914L38.1991 11.8843Z" fill="white"/>
<path d="M46.2689 7.36417H47.3858L46.988 11.893H45.8711L46.2689 7.36417ZM46.3071 5.76532C46.3377 5.39812 46.6514 5.10742 47.0262 5.10742C47.4011 5.10742 47.6688 5.39812 47.6382 5.76532C47.6076 6.14017 47.2787 6.43852 46.9115 6.43852C46.5443 6.43852 46.2765 6.14782 46.3071 5.76532Z" fill="white"/>
<path d="M48.4883 11.8745H49.9479C51.6616 9.62746 53.3766 7.38173 55.0903 5.13474H53.6219L51.8268 7.572C51.7304 7.36921 51.4538 6.83344 51.1171 6.24259L50.4561 5.12598H48.9427L51.0319 8.5046L48.4883 11.8745ZM52.3576 9.93666C52.7169 10.4612 53.6219 11.8745 53.6219 11.8745H55.0903C54.5395 11.0695 53.712 9.77643 53.1613 8.97152L52.3576 9.93666Z" fill="url(#svg1202535150_8140_paint2_linear_1045_2525)"/>
<defs>
<linearGradient id="svg1202535150_8140_paint0_linear_1045_2525" x1="9.47169" y1="12.9199" x2="5.35455" y2="5.91333" gradientUnits="userSpaceOnUse">
<stop stop-color="#FFA451"/>
<stop offset="0.660977" stop-color="#F375A3"/>
<stop offset="1" stop-color="#3C8AFF"/>
</linearGradient>
<linearGradient id="svg1202535150_8140_paint1_linear_1045_2525" x1="3.51642" y1="6.90443" x2="10.1585" y2="11.9565" gradientUnits="userSpaceOnUse">
<stop stop-color="#3A5AFF"/>
<stop offset="1" stop-color="#FD9D60"/>
</linearGradient>
<linearGradient id="svg1202535150_8140_paint2_linear_1045_2525" x1="52.1917" y1="7.23647" x2="54.1176" y2="9.04861" gradientUnits="userSpaceOnUse">
<stop offset="0.114583" stop-color="#FD9D61"/>
<stop offset="0.123198" stop-color="#3C8AFF"/>
</linearGradient>
</defs>
</svg>