<svg width="62" height="17" viewBox="0 0 62 17" fill="none" xmlns="http://www.w3.org/2000/svg" id="svg-665178524_10868">
<path d="M13.8027 1.61133H3.88843C2.84548 1.61133 2 2.46212 2 3.51162V13.4881C2 14.5376 2.84548 15.3884 3.88843 15.3884H13.8027C14.8457 15.3884 15.6911 14.5376 15.6911 13.4881V3.51162C15.6911 2.46212 14.8457 1.61133 13.8027 1.61133Z" fill="#38FDCE"/>
<path d="M13.4245 8.47754C13.4245 9.75601 12.9121 10.9139 12.0831 11.7517C11.2545 12.5899 10.1099 13.1081 8.84508 13.1081C7.5803 13.1081 6.43565 12.5899 5.60709 11.7517C4.7781 10.9139 4.26562 9.75601 4.26562 8.47754H6.4808C6.4808 9.13745 6.74535 9.73533 7.17304 10.1678C7.60074 10.6007 8.19203 10.8682 8.84508 10.8682C9.49813 10.8682 10.089 10.6007 10.5167 10.1678C10.9329 9.74739 11.1949 9.17019 11.2089 8.53181C11.2098 8.50166 11.2332 8.47754 11.263 8.47754H13.4245Z" fill="#13394F"/>
<path d="M10.6927 5.95156C10.0465 6.23543 9.52636 6.75836 9.2418 7.40966C9.15532 7.60737 8.8797 7.60737 8.79322 7.40966C8.50866 6.75836 7.98852 6.23543 7.34228 5.95156C7.14632 5.86541 7.14632 5.58414 7.34228 5.49799C7.98852 5.21412 8.50866 4.69118 8.79322 4.03989C8.8797 3.84217 9.15532 3.84217 9.2418 4.03989C9.52636 4.69118 10.0465 5.21412 10.6927 5.49799C10.8887 5.58414 10.8887 5.86541 10.6927 5.95156Z" fill="#13394F"/>
<path d="M21.551 5.42616H19.2812V11.8229H20.0579V9.25295H21.6019L22.7945 11.8229H23.6867L22.3785 9.10288C22.5726 9.03722 22.7606 8.93249 22.9425 8.78867C23.1243 8.64173 23.2753 8.44789 23.3955 8.20715C23.5157 7.96641 23.5758 7.67252 23.5758 7.32549C23.5758 6.9847 23.5018 6.67049 23.3539 6.38286C23.209 6.09522 22.9871 5.86387 22.6882 5.68878C22.3893 5.5137 22.0102 5.42616 21.551 5.42616ZM20.0579 8.57294V6.11555H21.4447C21.8453 6.11555 22.1658 6.22185 22.4062 6.43444C22.6466 6.64392 22.7668 6.955 22.7668 7.36769C22.7668 7.75225 22.6512 8.04926 22.4201 8.25873C22.192 8.46821 21.8577 8.57294 21.417 8.57294H20.0579Z" fill="#E4FFF9"/>
<path d="M26.1349 11.9026C26.4092 11.9026 26.6542 11.8667 26.8699 11.7948C27.0887 11.7197 27.2767 11.6181 27.4339 11.4899C27.5911 11.3586 27.7174 11.207 27.813 11.035C27.9116 10.8631 27.9825 10.6802 28.0256 10.4863H27.2675C27.2213 10.6364 27.1473 10.7708 27.0456 10.8897C26.947 11.0053 26.8222 11.096 26.6712 11.1617C26.5232 11.2242 26.3491 11.2554 26.1488 11.2554C25.7512 11.2554 25.4384 11.1101 25.2104 10.8193C24.9823 10.5254 24.8683 10.1377 24.8683 9.65626V9.54371H28.0903V9.11226C28.0903 8.64954 28.0102 8.24779 27.85 7.90701C27.6928 7.5631 27.4647 7.29578 27.1658 7.10507C26.8699 6.91436 26.5124 6.819 26.0933 6.819C25.6742 6.819 25.3167 6.91436 25.0208 7.10507C24.725 7.29266 24.4969 7.55528 24.3367 7.89294C24.1795 8.22747 24.1009 8.61671 24.1009 9.06067V9.59999C24.1009 10.0721 24.1826 10.4816 24.3459 10.8287C24.5093 11.1726 24.7435 11.4383 25.0486 11.6259C25.3537 11.8104 25.7158 11.9026 26.1349 11.9026ZM24.8683 8.92467C24.8683 8.92154 24.8683 8.91998 24.8683 8.91998C24.8683 8.91685 24.8683 8.91373 24.8683 8.9106C24.8683 8.63547 24.9176 8.39005 25.0162 8.17432C25.1179 7.95547 25.2612 7.78351 25.4461 7.65845C25.631 7.53027 25.8483 7.46618 26.0979 7.46618C26.3445 7.46618 26.5587 7.53027 26.7405 7.65845C26.9254 7.78351 27.0687 7.95547 27.1704 8.17432C27.2721 8.39005 27.323 8.63547 27.323 8.9106C27.323 8.91373 27.323 8.91685 27.323 8.91998C27.323 8.91998 27.323 8.92154 27.323 8.92467H24.8683Z" fill="#E4FFF9"/>
<path d="M29.0685 11.8229H29.8359V7.55059H30.8205V6.90341H29.8313V6.44382C29.8313 6.14681 29.896 5.94359 30.0254 5.83416C30.1549 5.72474 30.3521 5.67002 30.6171 5.67002C30.6788 5.67002 30.7296 5.67159 30.7697 5.67471C30.8128 5.67784 30.8514 5.68253 30.8853 5.68878V5.06036C30.8452 5.05411 30.7928 5.04786 30.7281 5.04161C30.6664 5.03535 30.594 5.03223 30.5108 5.03223C30.0208 5.03223 29.6571 5.14165 29.4198 5.3605C29.1856 5.57623 29.0685 5.91858 29.0685 6.38755V6.90341H28.3936V7.55059H29.0685V11.8229Z" fill="#E4FFF9"/>
<path d="M33.1948 11.9026C33.4691 11.9026 33.7141 11.8667 33.9298 11.7948C34.1486 11.7197 34.3366 11.6181 34.4938 11.4899C34.6509 11.3586 34.7773 11.207 34.8728 11.035C34.9714 10.8631 35.0423 10.6802 35.0855 10.4863H34.3273C34.2811 10.6364 34.2072 10.7708 34.1055 10.8897C34.0068 11.0053 33.882 11.096 33.731 11.1617C33.5831 11.2242 33.409 11.2554 33.2086 11.2554C32.8111 11.2554 32.4983 11.1101 32.2702 10.8193C32.0422 10.5254 31.9281 10.1377 31.9281 9.65626V9.54371H35.1502V9.11226C35.1502 8.64954 35.0701 8.24779 34.9098 7.90701C34.7526 7.5631 34.5246 7.29578 34.2256 7.10507C33.9298 6.91436 33.5723 6.819 33.1532 6.819C32.734 6.819 32.3765 6.91436 32.0807 7.10507C31.7848 7.29266 31.5568 7.55528 31.3965 7.89294C31.2394 8.22747 31.1608 8.61671 31.1608 9.06067V9.59999C31.1608 10.0721 31.2424 10.4816 31.4058 10.8287C31.5691 11.1726 31.8033 11.4383 32.1084 11.6259C32.4135 11.8104 32.7756 11.9026 33.1948 11.9026ZM31.9281 8.92467C31.9281 8.92154 31.9281 8.91998 31.9281 8.91998C31.9281 8.91685 31.9281 8.91373 31.9281 8.9106C31.9281 8.63547 31.9775 8.39005 32.0761 8.17432C32.1778 7.95547 32.3211 7.78351 32.506 7.65845C32.6909 7.53027 32.9082 7.46618 33.1578 7.46618C33.4043 7.46618 33.6185 7.53027 33.8004 7.65845C33.9853 7.78351 34.1286 7.95547 34.2303 8.17432C34.332 8.39005 34.3828 8.63547 34.3828 8.9106C34.3828 8.91373 34.3828 8.91685 34.3828 8.91998C34.3828 8.91998 34.3828 8.92154 34.3828 8.92467H31.9281Z" fill="#E4FFF9"/>
<path d="M35.8233 11.8229H36.5999V8.8215C36.5999 8.58076 36.6353 8.36347 36.7062 8.16963C36.7802 7.97579 36.9004 7.82259 37.0668 7.71004C37.2363 7.59436 37.4643 7.53652 37.7509 7.53652C37.828 7.53652 37.902 7.53965 37.9728 7.5459C38.0468 7.54903 38.1038 7.55528 38.1439 7.56466V6.85183C38.0977 6.84557 38.0483 6.84088 37.996 6.83776C37.9436 6.8315 37.8896 6.82838 37.8342 6.82838C37.5969 6.82838 37.395 6.86746 37.2286 6.94562C37.0652 7.02066 36.9343 7.11445 36.8356 7.227C36.737 7.33955 36.6646 7.44898 36.6184 7.55528H36.5906V6.90341H35.8233V11.8229Z" fill="#E4FFF9"/>
<path d="M38.6598 11.8229H39.4364V8.8215C39.4364 8.58076 39.4718 8.36347 39.5427 8.16963C39.6167 7.97579 39.7369 7.82259 39.9033 7.71004C40.0728 7.59436 40.3009 7.53652 40.5875 7.53652C40.6645 7.53652 40.7385 7.53965 40.8094 7.5459C40.8833 7.54903 40.9403 7.55528 40.9804 7.56466V6.85183C40.9342 6.84557 40.8849 6.84088 40.8325 6.83776C40.7801 6.8315 40.7261 6.82838 40.6707 6.82838C40.4334 6.82838 40.2315 6.86746 40.0651 6.94562C39.9018 7.02066 39.7708 7.11445 39.6722 7.227C39.5735 7.33955 39.5011 7.44898 39.4549 7.55528H39.4272V6.90341H38.6598V11.8229Z" fill="#E4FFF9"/>
<path d="M42.6335 11.9026C42.8862 11.9026 43.1035 11.8698 43.2853 11.8041C43.4702 11.7385 43.6243 11.6509 43.7476 11.5415C43.8739 11.4321 43.9741 11.3133 44.048 11.1851H44.0758V11.8229H44.8108V8.41818C44.8108 8.07115 44.7337 7.78039 44.5797 7.5459C44.4286 7.30829 44.2191 7.12852 43.951 7.00659C43.6828 6.88465 43.3762 6.82369 43.031 6.82369C42.7383 6.82369 42.4825 6.86121 42.2637 6.93624C42.0449 7.00815 41.8615 7.11132 41.7136 7.24576C41.5656 7.37707 41.4516 7.53183 41.3715 7.71004C41.2944 7.88825 41.2497 8.08365 41.2374 8.29625H41.9632C41.9817 8.12742 42.0325 7.98204 42.1157 7.86011C42.1989 7.73505 42.3145 7.6397 42.4624 7.57404C42.6135 7.50526 42.7953 7.47087 43.0079 7.47087C43.3346 7.47087 43.5889 7.55841 43.7707 7.73349C43.9556 7.90544 44.048 8.15556 44.048 8.48384V9.0044H42.7444C42.1897 9.00752 41.769 9.13727 41.4824 9.39364C41.1958 9.64688 41.0525 9.98767 41.0525 10.416C41.0525 10.8693 41.1989 11.2304 41.4917 11.4993C41.7844 11.7682 42.165 11.9026 42.6335 11.9026ZM42.8369 11.2601C42.5718 11.2601 42.3392 11.1882 42.1389 11.0444C41.9385 10.8975 41.8384 10.6771 41.8384 10.3832C41.8384 10.1518 41.9154 9.96266 42.0695 9.81571C42.2236 9.66564 42.4732 9.59061 42.8184 9.59061H44.048V10.1862C44.048 10.3988 43.9941 10.5864 43.8862 10.749C43.7815 10.9084 43.6382 11.0335 43.4563 11.1241C43.2745 11.2148 43.068 11.2601 42.8369 11.2601Z" fill="#E4FFF9"/>
<path d="M45.7011 11.8229H46.4731V5.08381H45.7011V11.8229Z" fill="#E4FFF9"/>
<path d="M53.2233 8.03832V9.24826C53.2233 9.72348 53.1416 10.1409 52.9783 10.5004C52.8149 10.8568 52.5807 11.1351 52.2756 11.3352C51.9736 11.5321 51.6115 11.6306 51.1893 11.6306C50.767 11.6306 50.4034 11.5321 50.0983 11.3352C49.7963 11.1351 49.5636 10.8568 49.4003 10.5004C49.2369 10.1409 49.1552 9.72348 49.1552 9.24826V8.03832C49.1552 7.55684 49.2369 7.1379 49.4003 6.78148C49.5667 6.42194 49.8024 6.14212 50.1075 5.94203C50.4126 5.74193 50.7732 5.64189 51.1893 5.64189C51.6084 5.64189 51.969 5.74193 52.271 5.94203C52.5761 6.14212 52.8103 6.42194 52.9736 6.78148C53.14 7.1379 53.2233 7.55684 53.2233 8.03832ZM53.5931 9.21543V8.07584C53.5931 7.5162 53.4975 7.02847 53.3065 6.61265C53.1185 6.19683 52.8457 5.87481 52.4882 5.64658C52.1307 5.41522 51.6978 5.29954 51.1893 5.29954C50.6808 5.29954 50.2478 5.41365 49.8903 5.64189C49.5328 5.87012 49.2585 6.19214 49.0674 6.60796C48.8794 7.02066 48.7854 7.50682 48.7854 8.06646V9.21543C48.7854 9.77194 48.8794 10.2565 49.0674 10.6692C49.2554 11.0819 49.5281 11.4024 49.8856 11.6306C50.2431 11.8557 50.6761 11.9683 51.1846 11.9683C51.6962 11.9683 52.1307 11.8557 52.4882 11.6306C52.8457 11.4024 53.1185 11.0819 53.3065 10.6692C53.4975 10.2565 53.5931 9.77194 53.5931 9.21543Z" fill="#E4FFF9"/>
<path d="M54.243 10.2096C54.243 10.3879 54.28 10.5801 54.354 10.7865C54.431 10.9897 54.5528 11.1804 54.7192 11.3586C54.8856 11.5368 55.1059 11.6838 55.3802 11.7995C55.6545 11.912 55.9904 11.9683 56.388 11.9683C56.8133 11.9683 57.1893 11.8979 57.5159 11.7572C57.8426 11.6134 58.0984 11.4102 58.2833 11.1476C58.4682 10.8818 58.5607 10.5676 58.5607 10.205C58.5607 9.86105 58.4929 9.58435 58.3573 9.37488C58.2217 9.16228 58.026 8.98876 57.7702 8.85433C57.5175 8.71676 57.2078 8.59952 56.841 8.5026L56.069 8.28687C55.6684 8.17745 55.3617 8.02738 55.1491 7.83666C54.9395 7.64282 54.8347 7.36457 54.8347 7.0019C54.8347 6.59233 54.9781 6.26405 55.2647 6.01706C55.5544 5.76694 55.9519 5.64189 56.4573 5.64189C56.8364 5.64189 57.1415 5.70754 57.3726 5.83885C57.6068 5.96704 57.7779 6.12805 57.8858 6.32189C57.9967 6.51261 58.0553 6.70488 58.0614 6.89872H58.4405C58.4374 6.60171 58.3573 6.33283 58.2001 6.0921C58.0429 5.85136 57.818 5.65908 57.5252 5.51526C57.2324 5.36832 56.878 5.29485 56.4619 5.29485C56.0582 5.29485 55.7054 5.36676 55.4033 5.51058C55.1013 5.65127 54.8671 5.8498 54.7007 6.10617C54.5343 6.36254 54.4511 6.66268 54.4511 7.00659C54.4511 7.31298 54.5096 7.57248 54.6267 7.78508C54.7469 7.99455 54.9149 8.16807 55.1306 8.30563C55.3463 8.4432 55.599 8.55106 55.8887 8.62922L56.6931 8.84495C57.1769 8.97626 57.5452 9.13883 57.7979 9.33267C58.0537 9.52651 58.1816 9.82353 58.1816 10.2237C58.1816 10.4957 58.1076 10.738 57.9597 10.9506C57.8149 11.1601 57.6099 11.3258 57.3449 11.4477C57.0829 11.5665 56.7763 11.6259 56.425 11.6259C56.0921 11.6259 55.8117 11.5806 55.5836 11.4899C55.3556 11.3961 55.1707 11.2773 55.0289 11.1335C54.8902 10.9897 54.7885 10.8365 54.7238 10.6739C54.6591 10.5082 54.6252 10.3535 54.6221 10.2096H54.243Z" fill="#E4FFF9"/>
</svg>