<svg width="49" height="17" viewBox="0 0 49 17" fill="none" xmlns="http://www.w3.org/2000/svg" id="svg1146597891_4027">
<mask id="svg1146597891_4027_mask0_1048_2590" style="mask-type:alpha" maskUnits="userSpaceOnUse" x="2" y="5" width="12" height="10">
<path d="M5.78326 8.86439L5.70805 9.10719C5.6178 9.40311 5.34705 9.60797 5.03118 9.60797C4.55736 9.60797 4.21892 9.14513 4.3543 8.68987L4.42951 8.44707C4.51976 8.15115 4.79051 7.94629 5.10638 7.94629C5.5802 7.94629 5.91864 8.40913 5.78326 8.86439Z" fill="black"/>
<path d="M13.2658 8.7813C13.2658 10.7086 11.7165 12.2716 9.80621 12.2716H7.18143L6.78283 14.0167C6.74522 14.1913 6.58729 14.3127 6.41431 14.3127H6.23381C5.63214 14.3127 5.18089 13.7436 5.31626 13.1518L5.51932 12.2716L5.79008 11.0728C5.85024 10.792 6.09843 10.5947 6.3767 10.5947H8.78337C9.00148 10.5947 9.19702 10.4582 9.26471 10.2533C9.27975 10.2002 9.28727 10.1471 9.28727 10.1015C9.28727 9.83598 9.07669 9.60835 8.79842 9.60835H7.15135C6.75274 9.60835 6.42935 9.32002 6.35414 8.96341C6.33158 8.84959 6.32406 8.72819 6.35414 8.60679V8.5992V8.58403C6.44439 8.20465 6.77531 7.93908 7.15887 7.93908H9.39256C9.60315 7.93908 9.80621 7.81009 9.8739 7.60523C9.88894 7.55212 9.90398 7.499 9.90398 7.4383C9.90398 7.17274 9.6934 6.94511 9.41513 6.94511H3.61655C3.06 6.96028 2.6614 6.41398 2.82686 5.88285C2.93215 5.52623 3.25555 5.29102 3.61655 5.29102H9.80621C11.7165 5.29102 13.2658 6.85406 13.2658 8.7813Z" fill="black"/>
</mask>
<g mask="url(#svg1146597891_4027_mask0_1048_2590)">
<path d="M0.925781 17.3193L0.925781 5.03981L14.3393 5.03981L14.3393 17.3193L0.925781 17.3193Z" fill="url(#svg1146597891_4027_paint0_radial_1048_2590)"/>
</g>
<path d="M18.2012 10.6845V14.3127H16.7617V5.85195C16.7617 5.45535 17.0849 5.1322 17.4815 5.1322C17.8781 5.1322 18.2012 5.45535 18.2012 5.85195V5.96946C18.6419 5.38191 19.3763 5 20.243 5C21.8293 5 23.3423 6.18979 23.3423 8.27559C23.3423 10.3467 21.7706 11.5365 20.2576 11.5365C19.391 11.5512 18.6419 11.2427 18.2012 10.6845ZM21.9175 8.2609C21.9175 7.17393 21.0949 6.32199 20.0226 6.32199C18.921 6.32199 18.1278 7.20331 18.1571 8.30497C18.1865 9.37724 19.0679 10.2733 20.1401 10.2145C21.139 10.1557 21.9175 9.31849 21.9175 8.2609Z" fill="white"/>
<path d="M23.9414 5.79303V11.4188H25.4103V5.79303C25.4103 5.39643 25.0871 5.05859 24.6758 5.05859C24.2646 5.05859 23.9414 5.39643 23.9414 5.79303Z" fill="white"/>
<path d="M26.043 8.29028C26.043 6.45418 27.4678 5 29.3039 5C31.1693 5 32.5354 6.38074 32.5354 8.23152V8.775H27.4237C27.6294 9.67102 28.3197 10.2586 29.3626 10.2586C30.1852 10.2586 30.8021 9.83259 31.1106 9.15691L32.3004 9.84728C31.7569 10.8755 30.7874 11.5512 29.3626 11.5512C27.3796 11.5512 26.043 10.1117 26.043 8.29028ZM27.4972 7.57053H31.0665C30.8462 6.71858 30.1999 6.27792 29.3039 6.27792C28.4372 6.27792 27.7616 6.80671 27.4972 7.57053Z" fill="white"/>
<path d="M33.1836 5.13216H34.6231V5.91066C35.0491 5.36718 35.6807 5.01465 36.5032 5.01465C38.0896 5.01465 39.0003 5.99879 39.0003 7.70269V10.6992C39.0003 11.1105 38.6772 11.4336 38.2659 11.4336C37.8546 11.4336 37.5315 11.1105 37.5315 10.6992V7.84957C37.5315 6.86543 37.0614 6.26319 36.1067 6.26319C35.2841 6.26319 34.6378 6.86543 34.6378 7.96708V11.4189H33.1836V5.13216Z" fill="white"/>
<path d="M39.6328 8.29023C39.6328 6.20443 41.1604 5.01465 42.7468 5.01465C43.5694 5.01465 44.3038 5.35249 44.7739 5.89597V5.86659C44.7739 5.47 45.097 5.14685 45.4936 5.14685C45.8902 5.14685 46.2134 5.47 46.2134 5.86659V11.4336H44.7592V10.6111C44.3038 11.1986 43.54 11.5511 42.7174 11.5511C41.2192 11.5511 39.6328 10.3467 39.6328 8.29023ZM44.8473 8.39306C44.9208 7.26203 44.0982 6.33663 42.9672 6.33663C41.8949 6.33663 41.0576 7.18858 41.0576 8.27555C41.0576 9.34783 41.8655 10.1998 42.9084 10.2291C43.9513 10.2438 44.7886 9.42127 44.8473 8.39306Z" fill="white"/>
<defs>
<radialGradient id="svg1146597891_4027_paint0_radial_1048_2590" cx="0" cy="0" r="1" gradientUnits="userSpaceOnUse" gradientTransform="translate(3.23166 11.84) rotate(-35.6727) scale(9.45064 8.60015)">
<stop stop-color="#85EAFF"/>
<stop offset="0.706211" stop-color="#DADADA"/>
<stop offset="1" stop-color="#FFCB80"/>
</radialGradient>
</defs>
</svg>