<svg width="34" height="35" viewBox="0 0 34 35" fill="none" xmlns="http://www.w3.org/2000/svg" id="svg-575945364_1233">
<g clip-path="url(#svg-575945364_1233_clip0_959_2397)">
<path d="M34 0.0996094H0V34.0996H34V0.0996094Z" fill="white"/>
<path d="M17.0488 17.1C17.0488 15.0137 18.7402 13.3223 20.8266 13.3223C22.913 13.3223 24.6044 15.0137 24.6044 17.1C24.6044 19.1865 22.913 20.8778 20.8266 20.8778C18.7402 20.8778 17.0488 19.1865 17.0488 17.1Z" fill="#1ABCFE"/>
<path d="M9.49219 24.6557C9.49219 22.5693 11.1836 20.8779 13.27 20.8779H17.0477V24.6557C17.0477 26.7421 15.3564 28.4335 13.27 28.4335C11.1836 28.4335 9.49219 26.7421 9.49219 24.6557Z" fill="#0ACF83"/>
<path d="M17.0488 5.7666V13.3221H20.8266C22.913 13.3221 24.6044 11.6308 24.6044 9.54438C24.6044 7.45797 22.913 5.7666 20.8266 5.7666H17.0488Z" fill="#FF7262"/>
<path d="M9.49219 9.54438C9.49219 11.6308 11.1836 13.3221 13.27 13.3221H17.0477V5.7666H13.27C11.1836 5.7666 9.49219 7.45797 9.49219 9.54438Z" fill="#F24E1E"/>
<path d="M9.49219 17.1C9.49219 19.1865 11.1836 20.8778 13.27 20.8778H17.0477V13.3223H13.27C11.1836 13.3223 9.49219 15.0137 9.49219 17.1Z" fill="#A259FF"/>
</g>
<defs>
<clipPath id="svg-575945364_1233_clip0_959_2397">
<rect y="0.0996094" width="34" height="34" rx="10" fill="white"/>
</clipPath>
</defs>
</svg>