<svg width="45" height="17" viewBox="0 0 45 17" fill="none" xmlns="http://www.w3.org/2000/svg" id="svg1134328218_6397">
<g filter="url(#svg1134328218_6397_filter0_b_1048_2924)">
<path d="M41.2826 11.4324H40.7227V5.5166H41.2826V11.4324Z" fill="url(#svg1134328218_6397_paint0_linear_1048_2924)"/>
<path d="M36.0664 9.46774C36.0664 8.30731 36.8536 7.39844 38.0464 7.39844C39.2312 7.39844 40.0265 8.30731 40.0265 9.46774C40.0265 10.6201 39.2312 11.5289 38.0464 11.5289C36.8536 11.5289 36.0664 10.6201 36.0664 9.46774ZM36.6426 9.45963C36.6426 10.3523 37.1863 11.0258 38.0464 11.0258C38.8985 11.0258 39.4503 10.3523 39.4503 9.45963C39.4503 8.5751 38.8985 7.90156 38.0464 7.90156C37.1863 7.90156 36.6426 8.5751 36.6426 9.45963Z" fill="url(#svg1134328218_6397_paint1_linear_1048_2924)"/>
<path d="M32.1602 9.47586C32.1602 8.23427 32.923 7.39844 34.059 7.39844C34.9436 7.39844 35.6009 7.93402 35.7551 8.7374H35.2114C35.0572 8.1937 34.5865 7.89345 34.059 7.89345C33.2638 7.89345 32.712 8.50207 32.712 9.46774C32.712 10.4091 33.2232 11.0258 34.0185 11.0258C34.5865 11.0258 35.0572 10.7093 35.2195 10.1981H35.7713C35.5847 11.0015 34.8787 11.5289 33.986 11.5289C32.8986 11.5289 32.1602 10.7093 32.1602 9.47586Z" fill="url(#svg1134328218_6397_paint2_linear_1048_2924)"/>
<path d="M27.8203 9.46774C27.8203 8.30731 28.6075 7.39844 29.8004 7.39844C30.9851 7.39844 31.7804 8.30731 31.7804 9.46774C31.7804 10.6201 30.9851 11.5289 29.8004 11.5289C28.6075 11.5289 27.8203 10.6201 27.8203 9.46774ZM28.3965 9.45963C28.3965 10.3523 28.9402 11.0258 29.8004 11.0258C30.6524 11.0258 31.2042 10.3523 31.2042 9.45963C31.2042 8.5751 30.6524 7.90156 29.8004 7.90156C28.9402 7.90156 28.3965 8.5751 28.3965 9.45963Z" fill="url(#svg1134328218_6397_paint3_linear_1048_2924)"/>
<path d="M26.8663 11.4319H26.3145V7.96683H25.5273V7.50428H26.3145V6.2627H26.8663V7.50428H27.6453V7.96683H26.8663V11.4319Z" fill="url(#svg1134328218_6397_paint4_linear_1048_2924)"/>
<path d="M21.4297 9.46774C21.4297 8.30731 22.2168 7.39844 23.4097 7.39844C24.5945 7.39844 25.3898 8.30731 25.3898 9.46774C25.3898 10.6201 24.5945 11.5289 23.4097 11.5289C22.2168 11.5289 21.4297 10.6201 21.4297 9.46774ZM22.0058 9.45963C22.0058 10.3523 22.5495 11.0258 23.4097 11.0258C24.2618 11.0258 24.8136 10.3523 24.8136 9.45963C24.8136 8.5751 24.2618 7.90156 23.4097 7.90156C22.5495 7.90156 22.0058 8.5751 22.0058 9.45963Z" fill="url(#svg1134328218_6397_paint5_linear_1048_2924)"/>
<path d="M21.2875 7.45535V7.94225H20.9142C20.1919 7.94225 19.7943 8.44537 19.7943 9.19195V11.4317H19.2344V7.50404H19.7537L19.7862 8.03963C20.0134 7.52839 20.6139 7.3174 21.2875 7.45535Z" fill="url(#svg1134328218_6397_paint6_linear_1048_2924)"/>
<path d="M16.7815 9.30625H15.1585V11.4324H14.5742V5.62207H16.7896C17.9176 5.62207 18.6155 6.3443 18.6155 7.44793C18.6155 8.50287 17.9176 9.30625 16.7815 9.30625ZM16.7166 6.16577H15.1585V8.77066H16.6841C17.5362 8.77066 18.0068 8.21073 18.0068 7.4317C18.0068 6.6689 17.5281 6.16577 16.7166 6.16577Z" fill="#8CF8FF"/>
<path d="M9.62954 9.46781L8.25 7.42285H9.40232C9.69446 7.83671 9.99471 8.31549 10.2868 8.78616L11.1308 7.42285H12.2507L10.8874 9.45158L12.2182 11.4316H11.074C10.8143 11.0665 10.4735 10.539 10.2219 10.117L9.38609 11.4316H8.29869L9.62954 9.46781Z" fill="url(#svg1134328218_6397_paint7_linear_1048_2924)"/>
<path d="M4.45398 11.432H3.38281L5.52515 5.5H6.58821L8.73055 11.432H7.63503L7.15625 10.0606H4.94088L4.45398 11.432ZM5.9309 7.26905L5.24113 9.19229H6.86412L6.18246 7.26905C6.13377 7.12299 6.07697 6.93634 6.06074 6.81462C6.04451 6.93634 5.9877 7.12299 5.9309 7.26905Z" fill="url(#svg1134328218_6397_paint8_linear_1048_2924)"/>
</g>
<defs>
<filter id="svg1134328218_6397_filter0_b_1048_2924" x="-11.4961" y="-9.377" width="67.6524" height="35.7843" filterUnits="userSpaceOnUse" color-interpolation-filters="sRGB">
<feFlood flood-opacity="0" result="BackgroundImageFix"/>
<feGaussianBlur in="BackgroundImageFix" stdDeviation="5.74807"/>
<feComposite in2="SourceAlpha" operator="in" result="effect1_backgroundBlur_1048_2924"/>
<feBlend mode="normal" in="SourceGraphic" in2="effect1_backgroundBlur_1048_2924" result="shape"/>
</filter>
<linearGradient id="svg1134328218_6397_paint0_linear_1048_2924" x1="22.7944" y1="5.43238" x2="24.4121" y2="18.6714" gradientUnits="userSpaceOnUse">
<stop stop-color="white"/>
<stop offset="1" stop-color="white" stop-opacity="0"/>
</linearGradient>
<linearGradient id="svg1134328218_6397_paint1_linear_1048_2924" x1="22.7917" y1="5.43156" x2="24.4094" y2="18.6706" gradientUnits="userSpaceOnUse">
<stop stop-color="white"/>
<stop offset="1" stop-color="white" stop-opacity="0"/>
</linearGradient>
<linearGradient id="svg1134328218_6397_paint2_linear_1048_2924" x1="22.7945" y1="5.43156" x2="24.4122" y2="18.6706" gradientUnits="userSpaceOnUse">
<stop stop-color="white"/>
<stop offset="1" stop-color="white" stop-opacity="0"/>
</linearGradient>
<linearGradient id="svg1134328218_6397_paint3_linear_1048_2924" x1="22.7917" y1="5.43156" x2="24.4094" y2="18.6706" gradientUnits="userSpaceOnUse">
<stop stop-color="white"/>
<stop offset="1" stop-color="white" stop-opacity="0"/>
</linearGradient>
<linearGradient id="svg1134328218_6397_paint4_linear_1048_2924" x1="22.795" y1="5.4319" x2="24.4127" y2="18.6709" gradientUnits="userSpaceOnUse">
<stop stop-color="white"/>
<stop offset="1" stop-color="white" stop-opacity="0"/>
</linearGradient>
<linearGradient id="svg1134328218_6397_paint5_linear_1048_2924" x1="22.7929" y1="5.43156" x2="24.4106" y2="18.6706" gradientUnits="userSpaceOnUse">
<stop stop-color="white"/>
<stop offset="1" stop-color="white" stop-opacity="0"/>
</linearGradient>
<linearGradient id="svg1134328218_6397_paint6_linear_1048_2924" x1="22.7955" y1="5.43167" x2="24.4131" y2="18.6707" gradientUnits="userSpaceOnUse">
<stop stop-color="white"/>
<stop offset="1" stop-color="white" stop-opacity="0"/>
</linearGradient>
<linearGradient id="svg1134328218_6397_paint7_linear_1048_2924" x1="9.55841" y1="11.3509" x2="10.9557" y2="10.7645" gradientUnits="userSpaceOnUse">
<stop stop-color="#FFC46B"/>
<stop offset="0.109844" stop-color="#DFB766"/>
<stop offset="0.111804" stop-color="#FFF3BD"/>
<stop offset="0.436431" stop-color="#FFDB93"/>
<stop offset="0.436715" stop-color="#FFE7A8"/>
<stop offset="0.747003" stop-color="white"/>
<stop offset="0.749702" stop-color="#FFC46C"/>
</linearGradient>
<linearGradient id="svg1134328218_6397_paint8_linear_1048_2924" x1="5.13178" y1="11.3126" x2="7.05243" y2="10.5844" gradientUnits="userSpaceOnUse">
<stop stop-color="#FFC46B"/>
<stop offset="0.109844" stop-color="#DFB766"/>
<stop offset="0.111804" stop-color="#FFF3BD"/>
<stop offset="0.436431" stop-color="#FFDB93"/>
<stop offset="0.436715" stop-color="#FFE7A8"/>
<stop offset="0.747003" stop-color="white"/>
<stop offset="0.749702" stop-color="#FFC46C"/>
</linearGradient>
</defs>
</svg>