<svg width="51" height="17" viewBox="0 0 51 17" fill="none" xmlns="http://www.w3.org/2000/svg" id="svg-407767913_5948">
<g clip-path="url(#svg-407767913_5948_clip0_1048_2838)">
<path d="M15.1557 13.4254C14.8581 13.4254 14.6089 13.3304 14.4079 13.1405C14.2089 12.9505 14.1094 12.6885 14.1094 12.3546C14.1094 12.0386 14.202 11.7777 14.3872 11.5717C14.5744 11.3637 14.8305 11.2598 15.1557 11.2598C15.4867 11.2598 15.7596 11.3957 15.9744 11.6677L15.7822 11.8297C15.6148 11.6157 15.4059 11.5087 15.1557 11.5087C14.9192 11.5087 14.73 11.5877 14.5882 11.7457C14.4483 11.9017 14.3783 12.1046 14.3783 12.3546C14.3783 12.6045 14.4512 12.8045 14.597 12.9545C14.7429 13.1025 14.9291 13.1764 15.1557 13.1764C15.4059 13.1764 15.6148 13.0705 15.7822 12.8585L15.9744 13.0235C15.7615 13.2914 15.4887 13.4254 15.1557 13.4254Z" fill="white" fill-opacity="0.7"/>
<path d="M18.104 13.4104L17.9178 12.8915H16.9808L16.7946 13.4104H16.5227L17.3178 11.2808H17.5749L18.3759 13.4104H18.104ZM17.0636 12.6635H17.835L17.4508 11.5987H17.4449L17.0636 12.6635Z" fill="white" fill-opacity="0.7"/>
<path d="M19.0753 13.4104V11.2808H19.8112C20.0457 11.2808 20.2201 11.3408 20.3344 11.4607C20.4487 11.5807 20.5058 11.7407 20.5058 11.9407C20.5058 12.1586 20.4388 12.3226 20.3048 12.4326C20.1728 12.5426 19.9935 12.5975 19.7669 12.5975H19.3324V13.4104H19.0753ZM19.3324 12.3576H19.7433C19.9107 12.3576 20.0349 12.3196 20.1157 12.2436C20.1965 12.1676 20.2368 12.0646 20.2368 11.9347C20.2368 11.8007 20.1965 11.6987 20.1157 11.6287C20.0368 11.5567 19.9265 11.5207 19.7846 11.5207H19.3324V12.3576Z" fill="white" fill-opacity="0.7"/>
<path d="M21.2718 13.4104V11.2808H21.5319V13.4104H21.2718Z" fill="white" fill-opacity="0.7"/>
<path d="M22.8894 13.4104V11.5207H22.2599V11.2808H23.7791V11.5207H23.1466V13.4104H22.8894Z" fill="white" fill-opacity="0.7"/>
<path d="M25.6965 13.4104L25.5103 12.8915H24.5734L24.3872 13.4104H24.1152L24.9103 11.2808H25.1674L25.9684 13.4104H25.6965ZM24.6561 12.6635H25.4275L25.0433 11.5987H25.0374L24.6561 12.6635Z" fill="white" fill-opacity="0.7"/>
<path d="M26.6678 13.4104V11.2808H26.925V13.1705H27.9653V13.4104H26.6678Z" fill="white" fill-opacity="0.7"/>
<path d="M11.6747 13.6139H10.555L9.43525 13.6139H6.07611L4.9564 13.6139L3.83669 13.6139L3.38053 13.6144H2.71647L2.71698 12.4775L2.71698 11.3412L2.71698 10.2048L2.71698 6.79578L2.71698 5.65944L2.71698 4.52309L2.71646 4.06015L2.71646 3.38622L3.1527 3.38622L3.83669 3.38674L4.9564 3.38674H6.07611L9.43525 3.38674L10.555 3.38674H11.6747L11.6747 4.52309L11.6747 5.65944L11.6747 6.79578L10.555 6.79578L10.555 5.65944L10.555 4.52309H9.43525L8.31554 4.52309L7.19582 4.52309L6.07611 4.52309L4.9564 4.52309H3.83669L3.83669 5.65944L3.83669 6.79578L3.83669 7.93213L3.83669 9.06848L3.83669 10.2048L3.83669 11.3412L3.83669 12.4775H4.9564L6.07611 12.4775L7.19582 12.4775H8.31554H9.43525H10.555L11.6747 12.4775L11.6747 13.6139Z" fill="white"/>
<path d="M17.323 5.86916C17.6629 5.95415 17.924 6.11412 18.1062 6.34908C18.2934 6.58404 18.387 6.87649 18.387 7.22644C18.387 7.66636 18.2392 8.0213 17.9437 8.29126C17.6531 8.56122 17.2319 8.69619 16.6802 8.69619H14.5078V3.37207H16.3994C16.956 3.37207 17.3797 3.48205 17.6703 3.70202C17.9659 3.92198 18.1136 4.24443 18.1136 4.66936C18.1136 4.92931 18.0496 5.16677 17.9215 5.38174C17.7934 5.5967 17.5939 5.75668 17.323 5.86166V5.86916ZM15.5275 4.30192V5.55421H16.2738C16.4954 5.55421 16.6826 5.50172 16.8353 5.39674C16.988 5.28675 17.0644 5.12928 17.0644 4.92431C17.0644 4.50938 16.7787 4.30192 16.2073 4.30192H15.5275ZM16.3698 7.76635C16.6555 7.76635 16.8821 7.70886 17.0496 7.59388C17.2171 7.47889 17.3008 7.31142 17.3008 7.09146C17.3008 6.87649 17.222 6.70902 17.0644 6.58904C16.9117 6.46406 16.6826 6.40157 16.3772 6.40157H15.5275V7.76635H16.3698Z" fill="white"/>
<path d="M21.6053 8.75618C20.9649 8.75618 20.4526 8.55872 20.0684 8.16378C19.6842 7.76385 19.4921 7.20644 19.4921 6.49156V3.37207H20.5339V6.42407C20.5339 6.819 20.6275 7.14145 20.8147 7.39141C21.0068 7.64137 21.2704 7.76635 21.6053 7.76635C21.9304 7.76635 22.194 7.64637 22.3959 7.40641C22.5979 7.16645 22.6989 6.839 22.6989 6.42407V3.37207H23.7407V6.49156C23.7407 7.19144 23.5511 7.74385 23.1718 8.14878C22.7974 8.55372 22.2753 8.75618 21.6053 8.75618Z" fill="white"/>
<path d="M25.1586 8.69619V3.37207H26.2005V8.69619H25.1586Z" fill="white"/>
<path d="M27.683 8.69619V3.37207H28.7248V7.75885H31.0598V8.69619H27.683Z" fill="white"/>
<path d="M32.1637 8.69619V3.37207H33.9001C34.7228 3.37207 35.3828 3.61953 35.8804 4.11445C36.3779 4.60437 36.6266 5.24676 36.6266 6.04163C36.6266 6.8365 36.3828 7.47889 35.8951 7.96881C35.4124 8.45373 34.7548 8.69619 33.9223 8.69619H32.1637ZM33.1908 7.75885H33.8558C34.3582 7.75885 34.7646 7.59637 35.075 7.27143C35.3902 6.94648 35.5479 6.53655 35.5479 6.04163C35.5479 5.54171 35.3952 5.12928 35.0897 4.80433C34.7843 4.47939 34.3952 4.31691 33.9223 4.31691H33.1908V7.75885Z" fill="white"/>
<path d="M37.8567 8.69619V3.37207H41.2113V4.31691H38.8764V5.5917H40.7458V6.52155H38.8764V7.75885H41.3664V8.69619H37.8567Z" fill="white"/>
<path d="M46.6171 8.69619H45.3906L44.2157 6.87399H43.6098V8.69619H42.5827V3.37207H44.5704C45.1763 3.37207 45.6319 3.53454 45.9373 3.85949C46.2427 4.17944 46.3955 4.60687 46.3955 5.14178C46.3955 5.97164 46.0359 6.50655 45.3167 6.74651L46.6171 8.69619ZM43.6098 4.30942V5.94415H44.3339C44.6492 5.94415 44.893 5.87166 45.0654 5.72668C45.2378 5.57671 45.324 5.37424 45.324 5.11928C45.324 4.86932 45.2403 4.67186 45.0728 4.52688C44.9103 4.3819 44.6787 4.30942 44.3783 4.30942H43.6098Z" fill="white"/>
<path d="M9.43474 5.65942L8.31502 5.65942L7.19531 5.65942L6.0756 5.65942L4.95589 5.65942V6.79577V7.93212L4.95589 9.06847L4.95589 10.2048L4.95589 11.3412L6.0756 11.3412L7.19531 11.3412L8.31502 11.3412L9.43474 11.3412L9.43474 5.65942ZM6.0756 10.2048L6.0756 6.79577L8.31502 6.79577L8.31502 7.93212L7.19531 7.93212L7.19531 9.06847L8.31502 9.06847L8.31502 10.2048H6.0756Z" fill="white"/>
</g>
<defs>
<clipPath id="svg-407767913_5948_clip0_1048_2838">
<rect width="51" height="17" fill="white"/>
</clipPath>
</defs>
</svg>