<svg width="24" height="16" viewBox="0 0 24 16" fill="none" xmlns="http://www.w3.org/2000/svg" id="svg-17840485_676">
<path d="M17.479 4.87203C17.479 4.87203 15.6411 10.5968 15.491 11.0695C15.0281 7.48166 14.561 3.89436 14.0894 0.307617C10.9576 0.307617 9.28313 2.52135 8.39818 4.85795L5.97568 11.0836C5.96152 10.6371 5.63568 4.92549 5.63568 4.92549C5.44302 2.06265 2.80235 0.319811 0.666016 0.319811L3.25285 15.891C6.53385 15.8769 8.30279 13.6763 9.22929 11.3397C9.22929 11.3397 11.2032 6.27624 11.2844 6.04643C11.2986 6.26217 12.7011 15.89 12.7011 15.89C15.9953 15.89 17.7652 13.8245 18.7172 11.5695L23.3327 0.320749C20.0791 0.320749 18.364 2.52135 17.479 4.87109V4.87203Z" fill="white"/>
</svg>