<svg width="22" height="22" viewBox="0 0 22 22" fill="none" xmlns="http://www.w3.org/2000/svg" id="svg2050516257_1912">
<path d="M4.85558 13.9081C4.85558 15.1431 3.85816 16.1414 2.62408 16.1414C1.38999 16.1414 0.392578 15.1431 0.392578 13.9081C0.392578 12.673 1.38999 11.6748 2.62408 11.6748H4.85558V13.9081Z" fill="#E01E5A"/>
<path d="M5.9707 13.9081C5.9707 12.673 6.96812 11.6748 8.2022 11.6748C9.43629 11.6748 10.4337 12.673 10.4337 13.9081V19.4913C10.4337 20.7263 9.43629 21.7245 8.2022 21.7245C6.96812 21.7245 5.9707 20.7263 5.9707 19.4913V13.9081Z" fill="#E01E5A"/>
<path d="M8.2022 4.94116C6.96812 4.94116 5.9707 3.94295 5.9707 2.70788C5.9707 1.47282 6.96812 0.474609 8.2022 0.474609C9.43629 0.474609 10.4337 1.47282 10.4337 2.70788V4.94116H8.2022Z" fill="#36C5F0"/>
<path d="M8.20215 6.07422C9.43624 6.07422 10.4337 7.07243 10.4337 8.30749C10.4337 9.54256 9.43624 10.5408 8.20215 10.5408H2.6065C1.37241 10.5408 0.375 9.54256 0.375 8.30749C0.375 7.07243 1.37241 6.07422 2.6065 6.07422H8.20215Z" fill="#36C5F0"/>
<path d="M17.1445 8.30749C17.1445 7.07243 18.1419 6.07422 19.376 6.07422C20.6101 6.07422 21.6075 7.07243 21.6075 8.30749C21.6075 9.54256 20.6101 10.5408 19.376 10.5408H17.1445V8.30749Z" fill="#2EB67D"/>
<path d="M16.0294 8.30799C16.0294 9.54306 15.032 10.5413 13.7979 10.5413C12.5638 10.5413 11.5664 9.54306 11.5664 8.30799V2.70788C11.5664 1.47282 12.5638 0.474609 13.7979 0.474609C15.032 0.474609 16.0294 1.47282 16.0294 2.70788V8.30799Z" fill="#2EB67D"/>
<path d="M13.7979 17.2578C15.032 17.2578 16.0294 18.256 16.0294 19.4911C16.0294 20.7262 15.032 21.7244 13.7979 21.7244C12.5638 21.7244 11.5664 20.7262 11.5664 19.4911V17.2578H13.7979Z" fill="#ECB22E"/>
<path d="M13.7979 16.1414C12.5638 16.1414 11.5664 15.1431 11.5664 13.9081C11.5664 12.673 12.5638 11.6748 13.7979 11.6748H19.3936C20.6276 11.6748 21.6251 12.673 21.6251 13.9081C21.6251 15.1431 20.6276 16.1414 19.3936 16.1414H13.7979Z" fill="#ECB22E"/>
</svg>