<svg width="26" height="26" viewBox="0 0 26 26" fill="none" xmlns="http://www.w3.org/2000/svg" id="svg-1196724653_1226">
<path d="M25.4446 12.3858L14.099 1.41234L12.9994 0.349609L0.555103 12.3858C0.148299 12.7803 0.148299 13.419 0.555103 13.8127L8.35778 21.3591L12.9994 25.8496L25.4446 13.8127C25.8518 13.419 25.8518 12.7803 25.4446 12.3858ZM12.9994 16.8687L9.1024 13.0998L12.9994 9.32949L16.8973 13.0998L12.9994 16.8687Z" fill="#2684FF"/>
<path d="M13.0011 9.30893C10.4437 6.8377 10.4306 2.83534 12.9739 0.349609L4.42383 8.60467L9.07759 13.0996L13.0011 9.30893Z" fill="url(#svg-1196724653_1226_paint0_linear_959_2569)"/>
<path d="M16.921 13.0996L13 16.8761C14.2356 18.0654 14.9306 19.6796 14.9306 21.3629C14.9306 23.0459 14.2356 24.6592 13 25.8496L21.5773 17.5863L16.921 13.0996Z" fill="url(#svg-1196724653_1226_paint1_linear_959_2569)"/>
<defs>
<linearGradient id="svg-1196724653_1226_paint0_linear_959_2569" x1="11.322" y1="6.44032" x2="7.00336" y2="10.9104" gradientUnits="userSpaceOnUse">
<stop stop-color="#0052CC"/>
<stop offset="1" stop-color="#2684FF"/>
</linearGradient>
<linearGradient id="svg-1196724653_1226_paint1_linear_959_2569" x1="14.7288" y1="19.6986" x2="19.0304" y2="15.2334" gradientUnits="userSpaceOnUse">
<stop stop-color="#0052CC"/>
<stop offset="1" stop-color="#2684FF"/>
</linearGradient>
</defs>
</svg>