<svg width="64" height="17" viewBox="0 0 64 17" fill="none" xmlns="http://www.w3.org/2000/svg" id="svg358550184_49629">
<path d="M7.74836 4.98702C7.52513 4.81343 7.31366 4.65141 7.11394 4.48938C7.01996 4.40838 6.93771 4.33895 6.85547 4.26951C7.09045 3.93389 7.32541 3.57513 7.74836 3.21638C8.15955 3.12379 8.62949 3.03121 9.29915 2.9502C9.3579 2.99649 9.41664 3.05435 9.47538 3.10065C9.60462 3.21638 9.75734 3.3321 9.91008 3.44783C9.6986 3.67928 9.48713 3.94547 9.25217 4.43152C8.71173 4.62826 8.28879 4.77871 7.74836 4.98702Z" fill="url(#svg358550184_49629_paint0_linear_1048_2608)"/>
<path d="M5.69012 7.51128C5.43165 7.31455 5.18493 7.11781 4.96172 6.93264C4.85598 6.84006 4.75025 6.75905 4.65625 6.67804C4.77374 6.20355 4.90297 5.70592 5.17319 5.11571C5.53738 4.91897 5.96033 4.69908 6.6065 4.45605C6.68874 4.52549 6.78273 4.60651 6.87671 4.68752C7.07644 4.86111 7.29965 5.02313 7.52288 5.19672C7.39365 5.60176 7.25267 6.01839 7.13518 6.70119C6.66524 6.94422 6.2188 7.18725 5.69012 7.51128Z" fill="url(#svg358550184_49629_paint1_linear_1048_2608)"/>
<path d="M4.48131 10.3564C4.24633 10.1828 4.01136 9.99761 3.81164 9.82402C3.71765 9.743 3.62367 9.66199 3.54143 9.58099C3.48268 9.09493 3.44744 8.58572 3.49443 7.90292C3.7294 7.63675 3.99961 7.32429 4.5048 6.94238C4.59878 7.02338 4.70452 7.11597 4.81026 7.20855C5.03348 7.39372 5.2802 7.59046 5.55042 7.78719C5.51518 8.25011 5.46818 8.78246 5.49167 9.52311C5.13922 9.77772 4.81026 10.0207 4.48131 10.3564Z" fill="url(#svg358550184_49629_paint2_linear_1048_2608)"/>
<path d="M14.8425 9.23528C15.0775 9.06168 15.3125 8.87652 15.5122 8.70292C15.6062 8.62191 15.7002 8.54091 15.7824 8.45989C15.8294 7.96226 15.8764 7.46463 15.8294 6.78183C15.5944 6.51566 15.3243 6.20319 14.819 5.82129C14.7251 5.90229 14.6193 5.99488 14.5136 6.08746C14.2904 6.27263 14.0436 6.46936 13.7734 6.66611C13.8087 7.12901 13.8557 7.66137 13.8322 8.40203C14.1964 8.65663 14.5136 8.89966 14.8425 9.23528Z" fill="url(#svg358550184_49629_paint3_linear_1048_2608)"/>
<path d="M4.37416 12.7757C4.20967 12.6484 4.0452 12.5211 3.90421 12.4054C3.83372 12.3475 3.77499 12.2897 3.71624 12.2434C3.52827 11.8383 3.34029 11.4217 3.16406 10.8083C3.23455 10.4496 3.2698 10.2413 3.49302 9.85938C3.57526 9.94038 3.66925 10.0098 3.76323 10.0908C3.96295 10.2644 4.18618 10.438 4.42114 10.6116C4.50339 11.0282 4.58563 11.5027 4.76186 12.0929C4.60912 12.2897 4.44465 12.498 4.37416 12.7757Z" fill="url(#svg358550184_49629_paint4_linear_1048_2608)"/>
<path d="M11.7064 7.39452C11.2834 7.17464 10.8487 6.95476 10.4258 6.71173C10.461 6.24881 10.4845 5.79747 10.5785 5.2767C10.9662 5.06839 11.3422 4.86007 11.7416 4.60547C12.0353 4.76748 12.3173 4.92951 12.611 5.06839C12.6462 5.46185 12.6815 5.77432 12.7637 6.43398C12.4935 6.71173 12.2233 6.98948 11.7064 7.39452Z" fill="url(#svg358550184_49629_paint5_linear_1048_2608)"/>
<path d="M10.2654 10.2882C9.772 10.0452 9.27857 9.77899 8.79688 9.50124C8.80863 8.91103 8.82038 8.40183 8.85563 7.80004C9.51354 7.41814 9.85425 7.23297 10.2889 6.9668C10.7236 7.20983 11.1583 7.44128 11.593 7.66117C11.6165 8.20508 11.6518 8.76058 11.6753 9.30451C11.2993 9.59382 10.9234 9.86001 10.2654 10.2882Z" fill="url(#svg358550184_49629_paint6_linear_1048_2608)"/>
<path d="M8.66381 12.8924C8.21737 12.6609 7.75918 12.4295 7.31273 12.1749C7.27749 11.6078 7.24224 11.1912 7.21875 10.6357C8.32311 9.97603 8.32311 9.97603 8.64032 9.7793C9.122 10.057 9.61544 10.3117 10.1089 10.5662C10.0971 11.631 10.0971 11.8277 10.0854 12.1749C9.66243 12.3948 9.28649 12.5915 8.66381 12.8924Z" fill="url(#svg358550184_49629_paint7_linear_1048_2608)"/>
<path d="M7.31542 14.5468C6.99821 14.3848 6.681 14.2227 6.37553 14.0376C6.2698 13.5052 6.22281 13.2622 6.16406 12.9729C6.45778 12.7993 6.6575 12.672 7.20968 12.3711C7.64437 12.6141 8.09082 12.8572 8.5255 13.077C8.51376 13.4589 8.51376 13.8293 8.46676 14.1996C7.57388 14.489 7.31542 14.5468 7.31542 14.5468Z" fill="url(#svg358550184_49629_paint8_linear_1048_2608)"/>
<path d="M14.7843 13.747C15.0546 13.5502 15.3365 13.3418 15.6067 13.1335C15.7359 12.6244 15.7947 12.3929 15.8534 12.1152C15.6185 11.9994 15.454 11.9068 15.0193 11.7217C14.6433 12.011 14.2556 12.3003 13.8679 12.5781C13.8445 12.9368 13.8327 13.2724 13.8445 13.6081C14.5728 13.7354 14.7843 13.747 14.7843 13.747Z" fill="#C4C4C4"/>
<path d="M14.7843 13.747C15.0546 13.5502 15.3365 13.3418 15.6067 13.1335C15.7359 12.6244 15.7947 12.3929 15.8534 12.1152C15.6185 11.9994 15.454 11.9068 15.0193 11.7217C14.6433 12.011 14.2556 12.3003 13.8679 12.5781C13.8445 12.9368 13.8327 13.2724 13.8445 13.6081C14.5728 13.7354 14.7843 13.747 14.7843 13.747Z" fill="url(#svg358550184_49629_paint9_linear_1048_2608)"/>
<path d="M8.72592 7.52196C8.27948 7.24422 7.84479 6.96647 7.43359 6.68872C7.52758 6.2258 7.62157 5.75132 7.80954 5.19583C8.33822 4.98751 8.58494 4.88336 9.31335 4.61719C9.64231 4.83706 9.98301 5.05695 10.3355 5.27684C10.2767 5.65874 10.2062 6.05221 10.1592 6.71187C9.59532 7.0359 9.51307 7.0822 8.72592 7.52196Z" fill="url(#svg358550184_49629_paint10_linear_1048_2608)"/>
<path d="M5.18863 4.88287C4.98891 4.66298 4.83617 4.46625 4.74219 4.30423C5.10638 3.84131 5.30611 3.58671 5.79955 3.18166C6.152 3.03121 6.56319 2.8692 7.17412 2.71875C7.24461 2.84606 7.3621 2.99649 7.52657 3.17009C7.15063 3.52885 6.93914 3.72558 6.61019 4.22322C6.18725 4.41995 5.72906 4.59354 5.18863 4.88287Z" fill="url(#svg358550184_49629_paint11_linear_1048_2608)"/>
<path d="M14.9278 4.45513C15.1275 4.23525 15.2803 4.03851 15.3742 3.87649C15.0101 3.41358 14.8103 3.15898 14.3168 2.75393C13.9644 2.60348 13.5532 2.44146 12.9423 2.29102C12.8718 2.41832 12.7543 2.56876 12.5898 2.74236C12.9658 3.10111 13.1773 3.29786 13.5062 3.79548C13.9409 3.98065 14.3991 4.15424 14.9278 4.45513Z" fill="url(#svg358550184_49629_paint12_linear_1048_2608)"/>
<path d="M7.06643 10.3679C6.60824 10.0902 6.16181 9.80086 5.73886 9.51155C5.73886 8.95605 5.72711 8.48156 5.80935 7.77563C6.22054 7.52102 6.58475 7.30113 7.25441 6.94238C7.66561 7.22013 8.11205 7.50944 8.55849 7.77563C8.52325 8.2964 8.49975 8.67831 8.488 9.4884C8.01806 9.7893 7.54813 10.0786 7.06643 10.3679Z" fill="#87F2E7"/>
<path d="M3.43475 7.64909C3.22328 7.4292 3.07055 7.22089 2.97656 7.05887C3.09405 6.58438 3.21153 6.09832 3.51699 5.47339C3.77546 5.1725 4.03393 4.8716 4.52736 4.52441C4.62135 4.68644 4.76233 4.88318 4.9738 5.10306C4.78582 5.53125 4.59785 5.97102 4.44512 6.66539C4.11616 6.95472 3.77546 7.24403 3.43475 7.64909Z" fill="url(#svg358550184_49629_paint13_linear_1048_2608)"/>
<path d="M6.01134 12.7755C5.6354 12.5441 5.27119 12.3126 4.93049 12.0812C4.82475 11.653 4.71902 11.2132 4.61328 10.5883C4.86 10.3568 5.11847 10.1254 5.6119 9.7666C6.0231 10.0443 6.46954 10.3337 6.92773 10.6114C6.96297 11.1322 6.97472 11.4447 7.03346 12.139C6.66927 12.3705 6.34031 12.5672 6.01134 12.7755Z" fill="url(#svg358550184_49629_paint14_linear_1048_2608)"/>
<path d="M3.07288 10.5765C2.89665 10.3913 2.77916 10.2293 2.70867 10.0904C2.62643 9.6275 2.55594 9.16459 2.56769 8.51651C2.62643 8.16932 2.68518 7.81057 2.9084 7.34766C3.00239 7.52125 3.15512 7.70642 3.35484 7.93787C3.34309 8.38921 3.31959 8.90999 3.40183 9.60436C3.26085 9.88211 3.11987 10.1714 3.07288 10.5765Z" fill="url(#svg358550184_49629_paint15_linear_1048_2608)"/>
<path d="M11.8043 12.741C11.3579 12.5674 10.8879 12.3707 10.418 12.1508C10.4297 11.7804 10.4415 11.2597 10.4415 10.5421C10.8997 10.2297 11.3461 9.94034 11.8513 9.54688C12.3212 9.76675 12.7794 9.9635 13.2259 10.1371C13.2494 10.6579 13.2846 11.1439 13.2494 11.7457C12.8734 12.035 12.4505 12.3591 11.8043 12.741Z" fill="url(#svg358550184_49629_paint16_linear_1048_2608)"/>
<path d="M9.86614 14.7089C9.50194 14.5701 9.12598 14.4081 8.73828 14.2229C8.77353 13.9451 8.80877 13.6443 8.83228 13.0888C9.29047 12.8804 9.71341 12.6837 10.2656 12.3828C10.7355 12.6027 11.2055 12.7994 11.6402 12.973C11.5814 13.3549 11.5227 13.76 11.3699 14.1767C10.2538 14.628 9.86614 14.7089 9.86614 14.7089Z" fill="url(#svg358550184_49629_paint17_linear_1048_2608)"/>
<path d="M14.8536 12.9364L14.6289 13.0265L14.9786 13.2648L14.9846 12.6006L14.8536 12.9364ZM14.7706 13.0404L14.8769 12.9977L14.9389 12.8388L14.9362 13.1532L14.7706 13.0404Z" fill="white"/>
<path d="M14.9571 12.5488L14.6201 12.3213L14.6133 12.9605L14.8302 12.8729L14.9571 12.5488ZM14.6624 12.4323L14.8546 12.5621L14.7308 12.6121L14.6585 12.7969L14.6624 12.4323ZM14.7543 12.6734L14.8809 12.6222L14.8068 12.8116L14.6801 12.8628L14.7543 12.6734Z" fill="white"/>
<path d="M3.79978 6.23026L3.56641 6.16522L3.69327 6.56494L4.11285 6.04492L3.79978 6.23026ZM3.66939 6.262L3.77988 6.29279L3.92811 6.20504L3.72945 6.45125L3.66939 6.262Z" fill="white"/>
<path d="M4.12574 5.98707L4.00226 5.60352L3.59766 6.10333L3.82335 6.16566L4.12574 5.98707ZM3.96625 5.71668L4.03668 5.93545L3.90793 5.8999L3.73548 6.00175L3.96625 5.71668ZM3.88806 5.96238L4.01995 5.99881L3.84324 6.10318L3.71134 6.06675L3.88806 5.96238Z" fill="white"/>
<path d="M14.4977 3.30843C14.4207 3.17746 14.3054 3.06042 14.1731 2.97886C14.0407 2.8973 13.9072 2.86097 13.797 2.87659C13.6869 2.89222 13.6133 2.9579 13.5899 3.06156C13.5664 3.1652 13.5959 3.29441 13.6729 3.42538C13.75 3.55635 13.8652 3.67339 13.9976 3.75495C14.0417 3.78212 14.0864 3.80453 14.1304 3.82156C14.1385 3.82468 14.1444 3.82129 14.1437 3.81399C14.143 3.80669 14.1359 3.79825 14.1279 3.79514C14.0863 3.7791 14.0442 3.75799 14.0027 3.73237C13.878 3.65556 13.7695 3.54533 13.6969 3.42198C13.6244 3.29863 13.5966 3.17694 13.6187 3.07931C13.6408 2.98169 13.7101 2.91982 13.8138 2.90512C13.9176 2.89041 14.0433 2.92461 14.168 3.00143C14.2927 3.07824 14.4012 3.18849 14.4738 3.31182C14.5463 3.43517 14.5741 3.55687 14.552 3.65449C14.5299 3.75211 14.4606 3.81398 14.3568 3.82869C14.3067 3.8358 14.2514 3.83161 14.1927 3.81622C14.1849 3.81416 14.1799 3.81869 14.1817 3.82635C14.1836 3.83401 14.1914 3.84189 14.1993 3.84395C14.2617 3.8603 14.3204 3.86476 14.3737 3.85721C14.4838 3.84159 14.5573 3.7759 14.5808 3.67226C14.6042 3.5686 14.5747 3.4394 14.4977 3.30843Z" fill="white"/>
<path d="M14.4977 3.30843C14.4207 3.17746 14.3054 3.06042 14.1731 2.97886C14.0407 2.8973 13.9072 2.86097 13.797 2.87659C13.6869 2.89222 13.6133 2.9579 13.5899 3.06156C13.5664 3.1652 13.5959 3.29441 13.6729 3.42538C13.75 3.55635 13.8652 3.67339 13.9976 3.75495C14.0417 3.78212 14.0864 3.80453 14.1304 3.82156C14.1385 3.82468 14.1444 3.82129 14.1437 3.81399C14.143 3.80669 14.1359 3.79825 14.1279 3.79514C14.0863 3.7791 14.0442 3.75799 14.0027 3.73237C13.878 3.65556 13.7695 3.54533 13.6969 3.42198C13.6244 3.29863 13.5966 3.17694 13.6187 3.07931C13.6408 2.98169 13.7101 2.91982 13.8138 2.90512C13.9176 2.89041 14.0433 2.92461 14.168 3.00143C14.2927 3.07824 14.4012 3.18849 14.4738 3.31182C14.5463 3.43517 14.5741 3.55687 14.552 3.65449C14.5299 3.75211 14.4606 3.81398 14.3568 3.82869C14.3067 3.8358 14.2514 3.83161 14.1927 3.81622C14.1849 3.81416 14.1799 3.81869 14.1817 3.82635C14.1836 3.83401 14.1914 3.84189 14.1993 3.84395C14.2617 3.8603 14.3204 3.86476 14.3737 3.85721C14.4838 3.84159 14.5573 3.7759 14.5808 3.67226C14.6042 3.5686 14.5747 3.4394 14.4977 3.30843Z" fill="white"/>
<path d="M13.815 2.97467C13.8095 2.96701 13.8003 2.96247 13.7944 2.96452C13.727 2.98796 13.6828 3.03801 13.6667 3.10926C13.6258 3.29004 13.7804 3.55284 14.0112 3.6951C14.242 3.83735 14.4631 3.80602 14.5039 3.62523C14.5448 3.44445 14.3903 3.18164 14.1594 3.03939C14.0512 2.97268 13.9412 2.94172 13.8495 2.95219C13.8428 2.95297 13.841 2.95999 13.8455 2.96788C13.85 2.97577 13.859 2.98155 13.8658 2.98079C13.9511 2.97103 14.0536 2.99985 14.1543 3.06196C14.3693 3.19442 14.5131 3.43914 14.4751 3.60747C14.437 3.77581 14.2312 3.80499 14.0163 3.67253C13.8014 3.54007 13.6575 3.29535 13.6955 3.12701C13.7105 3.06068 13.7516 3.01408 13.8144 2.99226C13.8203 2.99021 13.8206 2.98233 13.815 2.97467Z" fill="white"/>
<path d="M13.815 2.97467C13.8095 2.96701 13.8003 2.96247 13.7944 2.96452C13.727 2.98796 13.6828 3.03801 13.6667 3.10926C13.6258 3.29004 13.7804 3.55284 14.0112 3.6951C14.242 3.83735 14.4631 3.80602 14.5039 3.62523C14.5448 3.44445 14.3903 3.18164 14.1594 3.03939C14.0512 2.97268 13.9412 2.94172 13.8495 2.95219C13.8428 2.95297 13.841 2.95999 13.8455 2.96788C13.85 2.97577 13.859 2.98155 13.8658 2.98079C13.9511 2.97103 14.0536 2.99985 14.1543 3.06196C14.3693 3.19442 14.5131 3.43914 14.4751 3.60747C14.437 3.77581 14.2312 3.80499 14.0163 3.67253C13.8014 3.54007 13.6575 3.29535 13.6955 3.12701C13.7105 3.06068 13.7516 3.01408 13.8144 2.99226C13.8203 2.99021 13.8206 2.98233 13.815 2.97467Z" fill="white"/>
<path d="M13.8337 3.36764C13.8396 3.37963 13.8498 3.39076 13.8619 3.39817L14.1314 3.5643C14.1671 3.5863 14.2043 3.59825 14.2361 3.59797C14.2679 3.59767 14.2932 3.58515 14.3072 3.56269L14.3517 3.49132C14.3689 3.46377 14.3665 3.42292 14.3452 3.37925C14.3238 3.33559 14.2865 3.29505 14.2427 3.26805L14.0085 3.1237C13.9899 3.11226 13.9719 3.11243 13.9646 3.1241L13.9166 3.20104L13.8536 3.16218C13.839 3.1532 13.8246 3.15314 13.8186 3.16203L13.7953 3.19621C13.7919 3.20125 13.7922 3.20886 13.7961 3.21709C13.8001 3.22531 13.807 3.23295 13.8153 3.23803L13.8718 3.27288L13.8319 3.33687C13.8272 3.34444 13.8279 3.35566 13.8337 3.36764ZM13.8453 3.18474C13.8458 3.18393 13.8471 3.18393 13.8485 3.18475L14.113 3.34785L14.091 3.38031C14.0905 3.38112 14.0892 3.38111 14.0879 3.3803L13.8232 3.2172L13.8453 3.18474ZM13.986 3.34327L14.0827 3.40286C14.0973 3.41184 14.1117 3.41191 14.1178 3.40302L14.141 3.36883C14.1444 3.36379 14.1441 3.35618 14.1402 3.34796C14.1363 3.33973 14.1292 3.33209 14.121 3.327L14.0308 3.27143L14.0464 3.24651L14.2219 3.35469C14.2322 3.36101 14.2407 3.3701 14.2456 3.37965C14.2506 3.3896 14.2511 3.3989 14.2473 3.40518L14.2028 3.47654C14.1942 3.49028 14.173 3.49048 14.1512 3.47701L13.9716 3.36639L13.986 3.34327ZM13.9565 3.32507L13.9395 3.35242C13.9373 3.35593 13.9376 3.36112 13.9403 3.36667C13.943 3.37223 13.9478 3.37739 13.9533 3.38082L14.146 3.49958C14.1815 3.52142 14.2159 3.52111 14.2298 3.49882L14.2742 3.42746C14.2818 3.41554 14.2805 3.39786 14.271 3.37897C14.2619 3.36083 14.2459 3.34375 14.227 3.33211L14.043 3.21873C14.0344 3.21342 14.0261 3.2135 14.0227 3.21891L14.0013 3.25323L13.9462 3.21924L13.9916 3.14638C13.9935 3.14325 13.9984 3.14321 14.0034 3.14627L14.2376 3.29062C14.2726 3.31221 14.3024 3.34459 14.3194 3.37949C14.3365 3.41438 14.3384 3.44703 14.3246 3.46904L14.2801 3.54041C14.2687 3.55876 14.2481 3.56901 14.2221 3.56925C14.1961 3.56948 14.1657 3.55971 14.1365 3.54172L13.867 3.3756C13.8625 3.37288 13.8603 3.3693 13.8594 3.36741C13.8585 3.36552 13.8572 3.36194 13.8589 3.35916L13.9014 3.29108L13.9565 3.32507Z" fill="white"/>
<path d="M13.8337 3.36764C13.8396 3.37963 13.8498 3.39076 13.8619 3.39817L14.1314 3.5643C14.1671 3.5863 14.2043 3.59825 14.2361 3.59797C14.2679 3.59767 14.2932 3.58515 14.3072 3.56269L14.3517 3.49132C14.3689 3.46377 14.3665 3.42292 14.3452 3.37925C14.3238 3.33559 14.2865 3.29505 14.2427 3.26805L14.0085 3.1237C13.9899 3.11226 13.9719 3.11243 13.9646 3.1241L13.9166 3.20104L13.8536 3.16218C13.839 3.1532 13.8246 3.15314 13.8186 3.16203L13.7953 3.19621C13.7919 3.20125 13.7922 3.20886 13.7961 3.21709C13.8001 3.22531 13.807 3.23295 13.8153 3.23803L13.8718 3.27288L13.8319 3.33687C13.8272 3.34444 13.8279 3.35566 13.8337 3.36764ZM13.8453 3.18474C13.8458 3.18393 13.8471 3.18393 13.8485 3.18475L14.113 3.34785L14.091 3.38031C14.0905 3.38112 14.0892 3.38111 14.0879 3.3803L13.8232 3.2172L13.8453 3.18474ZM13.986 3.34327L14.0827 3.40286C14.0973 3.41184 14.1117 3.41191 14.1178 3.40302L14.141 3.36883C14.1444 3.36379 14.1441 3.35618 14.1402 3.34796C14.1363 3.33973 14.1292 3.33209 14.121 3.327L14.0308 3.27143L14.0464 3.24651L14.2219 3.35469C14.2322 3.36101 14.2407 3.3701 14.2456 3.37965C14.2506 3.3896 14.2511 3.3989 14.2473 3.40518L14.2028 3.47654C14.1942 3.49028 14.173 3.49048 14.1512 3.47701L13.9716 3.36639L13.986 3.34327ZM13.9565 3.32507L13.9395 3.35242C13.9373 3.35593 13.9376 3.36112 13.9403 3.36667C13.943 3.37223 13.9478 3.37739 13.9533 3.38082L14.146 3.49958C14.1815 3.52142 14.2159 3.52111 14.2298 3.49882L14.2742 3.42746C14.2818 3.41554 14.2805 3.39786 14.271 3.37897C14.2619 3.36083 14.2459 3.34375 14.227 3.33211L14.043 3.21873C14.0344 3.21342 14.0261 3.2135 14.0227 3.21891L14.0013 3.25323L13.9462 3.21924L13.9916 3.14638C13.9935 3.14325 13.9984 3.14321 14.0034 3.14627L14.2376 3.29062C14.2726 3.31221 14.3024 3.34459 14.3194 3.37949C14.3365 3.41438 14.3384 3.44703 14.3246 3.46904L14.2801 3.54041C14.2687 3.55876 14.2481 3.56901 14.2221 3.56925C14.1961 3.56948 14.1657 3.55971 14.1365 3.54172L13.867 3.3756C13.8625 3.37288 13.8603 3.3693 13.8594 3.36741C13.8585 3.36552 13.8572 3.36194 13.8589 3.35916L13.9014 3.29108L13.9565 3.32507Z" fill="white"/>
<path d="M4.15658 11.2478C4.12885 11.1194 4.07345 11.0047 4.0006 10.925C3.92775 10.8454 3.84618 10.8102 3.77089 10.826C3.69561 10.8417 3.63564 10.9066 3.60202 11.0086C3.5684 11.1105 3.56516 11.2375 3.5929 11.3659C3.62064 11.4944 3.67603 11.609 3.74888 11.6887C3.77315 11.7152 3.79864 11.7371 3.82466 11.7536C3.82943 11.7567 3.83394 11.7533 3.83475 11.7462C3.83556 11.739 3.83236 11.7307 3.82761 11.7277C3.80309 11.7121 3.77907 11.6915 3.7562 11.6665C3.68759 11.5914 3.63542 11.4835 3.60929 11.3625C3.58317 11.2415 3.58622 11.122 3.61788 11.0259C3.64955 10.9299 3.70603 10.8688 3.77694 10.8539C3.84785 10.8391 3.92467 10.8722 3.99329 10.9473C4.06189 11.0223 4.11407 11.1303 4.14019 11.2512C4.16631 11.3722 4.16326 11.4918 4.1316 11.5878C4.09994 11.6839 4.04345 11.7449 3.97254 11.7598C3.93826 11.767 3.90262 11.7631 3.86662 11.7482C3.86179 11.7462 3.85777 11.7506 3.85763 11.7582C3.85749 11.7657 3.8613 11.7734 3.86612 11.7754C3.90437 11.7912 3.9422 11.7954 3.97859 11.7878C4.05387 11.772 4.11385 11.7071 4.14747 11.6052C4.18108 11.5032 4.18432 11.3763 4.15658 11.2478Z" fill="white"/>
<path d="M3.76572 10.9208C3.76344 10.9133 3.75813 10.9089 3.75389 10.9109C3.70539 10.9342 3.66755 10.9836 3.64444 11.0537C3.5858 11.2316 3.64146 11.4893 3.76852 11.6283C3.89557 11.7673 4.04664 11.7356 4.10527 11.5577C4.16392 11.3799 4.10825 11.1221 3.9812 10.9831C3.92162 10.918 3.85457 10.8879 3.79237 10.8986C3.78782 10.8994 3.78539 10.9063 3.78696 10.914C3.78852 10.9218 3.79349 10.9274 3.79806 10.9266C3.85596 10.9167 3.91841 10.9447 3.97387 11.0053C4.09218 11.1347 4.14401 11.3748 4.08942 11.5404C4.03481 11.706 3.89414 11.7355 3.77584 11.6061C3.65753 11.4767 3.6057 11.2367 3.6603 11.071C3.68182 11.0058 3.71705 10.9598 3.7622 10.9381C3.76644 10.9361 3.76802 10.9283 3.76572 10.9208Z" fill="white"/>
<path d="M3.70774 11.3083C3.70949 11.32 3.71429 11.3309 3.72091 11.3382L3.86928 11.5005C3.88894 11.522 3.91132 11.5336 3.93234 11.5332C3.95335 11.5328 3.97216 11.5203 3.98532 11.4982L4.02714 11.4279C4.04329 11.4007 4.04889 11.3606 4.04251 11.3177C4.03614 11.2749 4.01865 11.2352 3.99453 11.2088L3.86561 11.0678C3.85539 11.0566 3.84349 11.0569 3.83665 11.0684L3.79156 11.1442L3.75685 11.1062C3.74883 11.0974 3.73936 11.0974 3.73382 11.1062L3.71254 11.1399C3.70939 11.1449 3.70825 11.1523 3.70939 11.1604C3.71054 11.1685 3.7138 11.176 3.71835 11.1809L3.74947 11.215L3.71196 11.278C3.70753 11.2855 3.70599 11.2965 3.70774 11.3083ZM3.74744 11.1284C3.74794 11.1276 3.7488 11.1276 3.74953 11.1284L3.89519 11.2877L3.87498 11.3197C3.87447 11.3205 3.87361 11.3205 3.87289 11.3197L3.72721 11.1604L3.74744 11.1284ZM3.81233 11.2837L3.86556 11.342C3.87358 11.3507 3.88304 11.3507 3.88859 11.342L3.90988 11.3083C3.91302 11.3033 3.91415 11.2958 3.91301 11.2877C3.91187 11.2797 3.9086 11.2722 3.90406 11.2672L3.85443 11.2129L3.86903 11.1884L3.96564 11.2941C3.9713 11.3002 3.97537 11.3091 3.97685 11.3185C3.9784 11.3283 3.97718 11.3374 3.9735 11.3436L3.93168 11.4139C3.92363 11.4275 3.90961 11.4277 3.89759 11.4146L3.79878 11.3065L3.81233 11.2837ZM3.79607 11.266L3.78005 11.2929C3.77799 11.2964 3.77727 11.3015 3.77809 11.3069C3.7789 11.3124 3.78113 11.3174 3.78419 11.3208L3.89027 11.4368C3.90977 11.4581 3.9325 11.4577 3.94556 11.4357L3.98738 11.3654C3.99436 11.3537 3.99668 11.3363 3.99376 11.3177C3.99094 11.2999 3.98336 11.2832 3.97297 11.2718L3.8717 11.1611C3.86697 11.1559 3.86145 11.156 3.85828 11.1613L3.83817 11.1952L3.80781 11.162L3.85051 11.0902C3.85235 11.0871 3.85554 11.087 3.85828 11.09L3.98721 11.231C4.00648 11.2521 4.02047 11.2838 4.02556 11.3181C4.03066 11.3523 4.02617 11.3844 4.01327 11.4061L3.97145 11.4764C3.9607 11.4945 3.94532 11.5047 3.92815 11.505C3.91097 11.5053 3.89267 11.4958 3.87661 11.4783L3.72823 11.316C3.7258 11.3133 3.72497 11.3098 3.72469 11.308C3.72443 11.3061 3.72421 11.3026 3.72583 11.2998L3.76572 11.2328L3.79607 11.266Z" fill="white"/>
<path d="M14.8168 7.57755L14.8879 7.4884C14.9205 7.44738 14.9235 7.37945 14.8947 7.33671C14.8658 7.29396 14.816 7.29257 14.7834 7.33359L14.7125 7.42274C14.7058 7.43095 14.7052 7.44454 14.711 7.45309L14.7947 7.57693C14.8003 7.58549 14.8103 7.58576 14.8168 7.57755ZM14.7452 7.43885L14.8042 7.36455C14.8238 7.33994 14.8538 7.34077 14.8711 7.36642C14.8884 7.39208 14.8865 7.43283 14.8669 7.45744L14.8079 7.53174L14.7452 7.43885Z" fill="white"/>
<path d="M14.974 7.36375C14.9723 7.35299 14.9698 7.3425 14.9668 7.33238C14.9374 7.23512 14.8546 7.19192 14.7818 7.23588L14.7556 7.19703C14.7498 7.18848 14.7398 7.1882 14.7333 7.1964L14.6861 7.25584C14.6796 7.26404 14.6788 7.27763 14.6846 7.28618L14.7056 7.31715L14.6819 7.34686L14.661 7.31589C14.6552 7.30734 14.6453 7.30707 14.6387 7.31528L14.5914 7.37471C14.5849 7.38292 14.5843 7.3965 14.5901 7.40505L14.6109 7.43601L14.5873 7.46573C14.5808 7.47394 14.5803 7.48752 14.5859 7.49607L14.6277 7.55799C14.6335 7.56654 14.6435 7.56681 14.65 7.55862L14.6736 7.52889L14.8618 7.80755L14.8382 7.83726C14.8317 7.84547 14.831 7.85906 14.8368 7.86761L14.8786 7.92953C14.8844 7.93808 14.8944 7.93836 14.9009 7.93015L14.9245 7.90044L14.9455 7.9314C14.9513 7.93995 14.9612 7.94022 14.9678 7.93202L15.015 7.87258C15.0215 7.86438 15.0223 7.8508 15.0165 7.84225L14.9955 7.81129L15.0192 7.78157L15.0401 7.81253C15.0459 7.82108 15.0558 7.82136 15.0624 7.81315L15.1097 7.75371C15.1162 7.74552 15.1168 7.73192 15.111 7.72338L15.0902 7.69241C15.1264 7.64679 15.1437 7.58012 15.1363 7.51554C15.1242 7.41092 15.0515 7.34296 14.974 7.36375ZM15.0692 7.66145L15.0574 7.67631C15.0508 7.68451 15.0502 7.6981 15.056 7.70665L15.0768 7.73762L15.0532 7.76733L15.0324 7.73636C15.0266 7.72781 15.0166 7.72754 15.0101 7.73575L14.9628 7.79518C14.9562 7.80339 14.9557 7.81697 14.9615 7.82552L14.9823 7.85648L14.9587 7.8862L14.9377 7.85524C14.9321 7.84669 14.9221 7.8464 14.9156 7.85461L14.8918 7.88433L14.871 7.85337L14.8946 7.82365C14.9011 7.81544 14.9017 7.80186 14.896 7.79331L14.687 7.48369C14.6812 7.47514 14.6712 7.47487 14.6647 7.48308L14.6409 7.51279L14.6201 7.48182L14.6437 7.45212C14.6502 7.44391 14.6509 7.43032 14.6451 7.42177L14.6241 7.39081L14.6479 7.3611L14.6687 7.39206C14.6745 7.40061 14.6845 7.40088 14.691 7.39267L14.7383 7.33324C14.7449 7.32503 14.7454 7.31145 14.7397 7.30291L14.7188 7.27194L14.7424 7.24222L14.766 7.27705C14.7706 7.28411 14.7785 7.28569 14.785 7.2809C14.7977 7.27136 14.8116 7.26522 14.8258 7.26278C14.8866 7.25241 14.94 7.31073 14.9452 7.39304C14.9452 7.39443 14.9455 7.3958 14.9458 7.39713C14.9481 7.40838 14.957 7.41444 14.9654 7.41068C15.0063 7.3923 15.0505 7.40724 15.0787 7.44908C15.1191 7.50889 15.1149 7.60398 15.0692 7.66145Z" fill="white"/>
<path d="M14.9438 7.47422L14.8374 7.60795C14.8309 7.61615 14.8302 7.62973 14.836 7.63828L14.9196 7.76213C14.9254 7.77068 14.9354 7.77096 14.9419 7.76276L15.0483 7.62903C15.0809 7.588 15.084 7.52008 15.0551 7.47734C15.0263 7.43458 14.9764 7.43319 14.9438 7.47422ZM15.0274 7.59807L14.9328 7.71694L14.8701 7.62405L14.9647 7.50518C14.9842 7.48056 15.0142 7.4814 15.0316 7.50705C15.0488 7.5327 15.047 7.57344 15.0274 7.59807Z" fill="white"/>
<path d="M14.5739 7.05431C14.378 7.30049 14.3596 7.70799 14.5328 7.96449C14.7059 8.22098 15.0052 8.22934 15.2011 7.98316C15.3967 7.73679 15.4151 7.32963 15.2422 7.07297C15.069 6.81648 14.7698 6.80812 14.5739 7.05431ZM15.1801 7.9522C14.9972 8.18196 14.7181 8.17417 14.5564 7.93477C14.3948 7.69538 14.4119 7.31504 14.5948 7.08527C14.7778 6.85588 15.0567 6.86367 15.2186 7.1027C15.3802 7.34208 15.3629 7.72243 15.1801 7.9522Z" fill="white"/>
<path d="M14.6151 7.11536C14.4453 7.32872 14.4294 7.68189 14.5795 7.90418C14.7295 8.12648 14.9889 8.13372 15.1586 7.92036C15.3282 7.70685 15.3441 7.35397 15.1942 7.13154C15.0443 6.90924 14.785 6.902 14.6151 7.11536ZM15.1378 7.8894C14.981 8.08635 14.7417 8.07966 14.6031 7.87447C14.4646 7.66927 14.4793 7.34327 14.636 7.14632C14.7928 6.94971 15.0319 6.95639 15.1706 7.16125C15.3092 7.36646 15.2944 7.69246 15.1378 7.8894Z" fill="white"/>
<path d="M7.57614 14.0903C7.55337 14.1055 7.50108 14.0757 7.50359 14.0487C7.50194 14.0269 7.5338 14.0194 7.55977 14.0347C7.58648 14.0494 7.59599 14.0805 7.57614 14.0903ZM7.88004 14.0433C7.86533 14.0508 7.83511 14.0374 7.82817 14.0199C7.81671 14.0012 7.83577 13.986 7.85869 13.994C7.88727 14.001 7.90216 14.0361 7.88004 14.0433ZM7.20093 14.0277C7.23063 14.0293 7.25491 14.0681 7.23176 14.0774C7.2153 14.0876 7.1874 14.0716 7.17539 14.0541C7.17219 14.0388 7.17948 14.0244 7.20093 14.0277ZM7.74662 13.9271C7.725 13.9455 7.66928 13.9227 7.65825 13.8915C7.644 13.8602 7.68181 13.8397 7.719 13.8594C7.75301 13.8747 7.7684 13.9129 7.74662 13.9271ZM7.27733 13.9332C7.27938 13.9645 7.22535 13.9683 7.19494 13.9393C7.16806 13.9169 7.17213 13.8872 7.1951 13.878C7.22783 13.8702 7.27902 13.9026 7.27733 13.9332ZM7.50085 13.8639C7.51447 13.8901 7.49726 13.9111 7.46985 13.9144C7.44938 13.912 7.42533 13.906 7.4088 13.8897C7.38209 13.8674 7.37933 13.835 7.40109 13.823C7.41039 13.8162 7.42622 13.8178 7.4401 13.8178C7.46529 13.8256 7.49158 13.8422 7.50085 13.8639ZM7.95629 13.8007C7.93631 13.8171 7.88534 13.7918 7.88239 13.7648C7.87655 13.7417 7.90663 13.7306 7.93391 13.7441C7.96206 13.7566 7.97533 13.7898 7.95629 13.8007ZM6.93664 13.854C6.92138 13.8712 6.87352 13.8549 6.86312 13.8286C6.84952 13.805 6.87378 13.7853 6.90317 13.7964C6.93385 13.8051 6.95404 13.8397 6.93664 13.854ZM7.32398 13.7852C7.29161 13.7994 7.23839 13.7873 7.20104 13.758C7.15326 13.7225 7.14006 13.6651 7.17426 13.6416C7.20813 13.6139 7.28701 13.6317 7.3275 13.6767C7.36789 13.7169 7.3655 13.7698 7.32398 13.7852ZM7.54816 13.7694C7.51445 13.7894 7.44937 13.7775 7.40918 13.74C7.36585 13.7037 7.35813 13.6504 7.39174 13.6288C7.42418 13.6047 7.4939 13.618 7.53538 13.6573C7.57872 13.6951 7.58461 13.749 7.54816 13.7694ZM7.74006 13.6893C7.74912 13.7137 7.73116 13.7309 7.70578 13.7339C7.67603 13.7323 7.64366 13.7142 7.62781 13.6891C7.61701 13.664 7.62651 13.6385 7.65657 13.6371C7.68827 13.6328 7.73186 13.6603 7.74006 13.6893ZM7.08944 13.7606C7.06439 13.7798 7.00454 13.7569 6.98865 13.7225C6.96789 13.6862 7.00694 13.6578 7.05147 13.6774C7.0955 13.6934 7.11812 13.7436 7.08944 13.7606ZM7.5591 13.6045C7.52438 13.6162 7.47075 13.6021 7.43505 13.571C7.39739 13.5397 7.38332 13.4944 7.40435 13.4689C7.4291 13.4319 7.51434 13.4418 7.56095 13.4881C7.60892 13.5302 7.60699 13.5902 7.5591 13.6045ZM7.13009 13.6271C7.09651 13.6388 7.04465 13.628 7.00827 13.5982C6.96297 13.5642 6.94928 13.5107 6.97844 13.4857C7.00769 13.457 7.08084 13.4675 7.12532 13.5077C7.17551 13.5491 7.17756 13.6112 7.13009 13.6271ZM7.79344 13.551C7.76502 13.5642 7.71022 13.5329 7.70891 13.5022C7.70356 13.4745 7.742 13.4622 7.77468 13.4811C7.81057 13.4986 7.8221 13.5412 7.79344 13.551ZM6.84421 13.556C6.85787 13.5809 6.84836 13.6041 6.82 13.607C6.79491 13.6049 6.76368 13.5894 6.75412 13.5669C6.73691 13.5373 6.76726 13.5149 6.80304 13.5274C6.81955 13.5327 6.83262 13.5446 6.84421 13.556ZM7.9542 13.5275C7.93764 13.5366 7.90421 13.5222 7.89868 13.5018C7.88821 13.4788 7.92197 13.4681 7.94567 13.4864C7.96479 13.499 7.96773 13.5199 7.9542 13.5275ZM6.65679 13.5957C6.64691 13.6055 6.62034 13.6002 6.60703 13.5856C6.58901 13.5697 6.59554 13.5464 6.61775 13.5481C6.64577 13.5442 6.67515 13.5831 6.65679 13.5957ZM7.36418 13.4462C7.31633 13.4615 7.23792 13.4247 7.21263 13.3754C7.18391 13.3259 7.21889 13.2789 7.28014 13.2874C7.32608 13.2913 7.37816 13.326 7.39614 13.3643C7.41478 13.4008 7.40074 13.4364 7.36418 13.4462ZM7.14976 13.4575C7.10166 13.474 7.02117 13.4366 6.99652 13.3861C6.96889 13.3374 7.00284 13.292 7.06202 13.2988C7.11605 13.302 7.17883 13.3495 7.18674 13.394C7.19432 13.4236 7.17873 13.4487 7.14976 13.4575ZM7.54793 13.4057C7.5128 13.4134 7.45816 13.3778 7.45743 13.3451C7.45147 13.3105 7.50281 13.2985 7.54163 13.3249C7.58418 13.35 7.58717 13.3999 7.54793 13.4057ZM6.9182 13.437C6.89064 13.4512 6.83589 13.4276 6.82204 13.3949C6.80255 13.3593 6.84146 13.3319 6.8852 13.3511C6.93227 13.3678 6.95337 13.4233 6.9182 13.437ZM6.66355 13.2905C6.68789 13.3117 6.67845 13.3418 6.64892 13.3392C6.63534 13.3401 6.62095 13.3311 6.60815 13.3236C6.59978 13.3108 6.58894 13.2955 6.59606 13.2849C6.60324 13.2656 6.64337 13.2689 6.66355 13.2905ZM7.69186 13.2787C7.67382 13.2951 7.62544 13.2745 7.61778 13.2477C7.60898 13.2241 7.63565 13.2089 7.66443 13.2211C7.6942 13.232 7.71075 13.2664 7.69186 13.2787ZM7.15949 13.256C7.1325 13.2709 7.07657 13.2473 7.06318 13.2145C7.04238 13.1784 7.0827 13.1506 7.12657 13.1706C7.17254 13.1874 7.19421 13.2425 7.15949 13.256ZM7.37003 13.1953C7.34812 13.2101 7.29804 13.1892 7.28632 13.1607C7.27367 13.1376 7.28933 13.1165 7.31704 13.1185C7.33876 13.1178 7.36142 13.1341 7.37652 13.1499C7.38511 13.1676 7.38683 13.1877 7.37003 13.1953ZM6.89368 13.2198C6.87237 13.2373 6.81881 13.2165 6.80626 13.1861C6.78948 13.1545 6.82653 13.1318 6.86449 13.1512C6.89929 13.1661 6.91588 13.2054 6.89368 13.2198ZM6.71934 13.0435C6.74131 13.0602 6.73657 13.0822 6.71732 13.0872C6.69864 13.085 6.6748 13.0747 6.66953 13.0569C6.66002 13.0331 6.69559 13.0238 6.71934 13.0435ZM7.38431 13.0244C7.38611 13.0385 7.38046 13.0529 7.36013 13.0503C7.33232 13.05 7.30615 13.0146 7.32414 13.0023C7.33896 12.9886 7.37234 13.0046 7.38431 13.0244ZM7.05915 13.0251C7.06439 13.0458 7.03935 13.0574 7.014 13.0475C6.99838 13.0432 6.98799 13.0304 6.97906 13.0196C6.97795 13.0138 6.97665 13.008 6.97534 13.0022C6.97915 12.9933 6.98527 12.9842 6.99894 12.9838C7.02274 12.9799 7.05809 13.0038 7.05915 13.0251Z" fill="white"/>
<path d="M11.0668 6.24934C11.0507 6.22542 11.0829 6.17506 11.1117 6.17949C11.135 6.17938 11.1428 6.21187 11.1262 6.23685C11.1104 6.26261 11.0771 6.26994 11.0668 6.24934ZM11.1147 6.55759C11.1069 6.5423 11.1214 6.51293 11.14 6.50719C11.1601 6.49702 11.1762 6.51724 11.1675 6.53966C11.1598 6.56782 11.1223 6.58029 11.1147 6.55759ZM11.1364 5.8773C11.1345 5.907 11.0928 5.92859 11.0831 5.90471C11.0724 5.88749 11.0896 5.86061 11.1083 5.84981C11.1247 5.84768 11.1401 5.85602 11.1364 5.8773ZM11.2397 6.43196C11.2202 6.40895 11.245 6.35466 11.2783 6.34582C11.3118 6.33374 11.3335 6.37313 11.3122 6.40904C11.2956 6.44209 11.2547 6.45481 11.2397 6.43196ZM11.2366 5.96065C11.2032 5.96049 11.1996 5.90601 11.2307 5.87756C11.2548 5.85218 11.2865 5.85837 11.2962 5.88207C11.3043 5.91547 11.2694 5.96453 11.2366 5.96065ZM11.3091 6.18985C11.2809 6.20165 11.2586 6.18289 11.2553 6.15516C11.258 6.13479 11.2646 6.11109 11.2821 6.09565C11.3061 6.07044 11.3408 6.06996 11.3534 6.09266C11.3606 6.10247 11.3588 6.11825 11.3587 6.13217C11.3501 6.15688 11.3322 6.18207 11.3091 6.18985ZM11.3731 6.65129C11.3557 6.63008 11.3831 6.58073 11.4119 6.57969C11.4367 6.57547 11.4483 6.60644 11.4336 6.63284C11.42 6.6602 11.3847 6.67118 11.3731 6.65129ZM11.3238 5.62445C11.3055 5.60792 11.3233 5.56106 11.3513 5.55247C11.3767 5.54051 11.3975 5.56625 11.3855 5.59496C11.3759 5.62511 11.3389 5.64291 11.3238 5.62445ZM11.3943 6.01795C11.3793 5.98446 11.3928 5.93194 11.4242 5.89654C11.4626 5.85112 11.5238 5.84193 11.5488 5.87793C11.578 5.91386 11.5584 5.99175 11.51 6.02919C11.4669 6.06686 11.4104 6.06071 11.3943 6.01795ZM11.4095 6.24401C11.3884 6.20877 11.4016 6.14432 11.442 6.10665C11.481 6.06575 11.5379 6.06179 11.5608 6.09704C11.5862 6.13129 11.5715 6.2003 11.5293 6.23914C11.4887 6.27996 11.431 6.28203 11.4095 6.24401ZM11.4937 6.44223C11.4675 6.44959 11.4493 6.43035 11.4463 6.40468C11.4481 6.37493 11.4678 6.34375 11.4946 6.32962C11.5215 6.32056 11.5487 6.3319 11.55 6.36215C11.5542 6.39428 11.5246 6.43606 11.4937 6.44223ZM11.4223 5.78438C11.4021 5.75789 11.4269 5.69946 11.4638 5.68595C11.5026 5.6677 11.5326 5.70889 11.5114 5.75218C11.494 5.79523 11.4403 5.81436 11.4223 5.78438ZM11.5855 6.26668C11.5733 6.23101 11.5887 6.1782 11.6222 6.14459C11.6558 6.10902 11.7043 6.09812 11.7313 6.12101C11.7707 6.14848 11.7595 6.2333 11.7097 6.27679C11.6643 6.32194 11.6003 6.31575 11.5855 6.26668ZM11.5646 5.83464C11.5523 5.80011 11.5641 5.74884 11.5963 5.71445C11.6329 5.67142 11.6901 5.66147 11.7165 5.69251C11.7469 5.72388 11.7352 5.79654 11.692 5.83831C11.6474 5.88574 11.5812 5.88339 11.5646 5.83464ZM11.6408 6.5056C11.627 6.47614 11.6608 6.42338 11.6935 6.42425C11.7232 6.42083 11.7361 6.46028 11.7156 6.49173C11.6967 6.52649 11.6512 6.53506 11.6408 6.5056ZM11.6426 5.55285C11.6159 5.56478 11.5911 5.55359 11.5882 5.52493C11.5906 5.49991 11.6074 5.46966 11.6316 5.46168C11.6633 5.44651 11.6869 5.47855 11.6734 5.51355C11.6675 5.52974 11.6548 5.54202 11.6426 5.55285ZM11.6647 6.66856C11.6552 6.65131 11.6708 6.61877 11.6927 6.61469C11.7172 6.60581 11.7284 6.64044 11.7087 6.66292C11.6951 6.68121 11.6728 6.68268 11.6647 6.66856ZM11.6016 5.36197C11.5911 5.35136 11.597 5.32508 11.6127 5.31276C11.6297 5.29582 11.6545 5.30401 11.6526 5.32618C11.6565 5.35458 11.6149 5.38128 11.6016 5.36197ZM11.7558 6.08233C11.7399 6.03323 11.7798 5.95717 11.8325 5.9353C11.8856 5.90998 11.9356 5.94842 11.926 6.00928C11.9215 6.05509 11.8841 6.10488 11.8431 6.12021C11.804 6.13631 11.7661 6.1197 11.7558 6.08233ZM11.7454 5.8664C11.7282 5.81697 11.7688 5.73885 11.8227 5.7177C11.8749 5.69342 11.9232 5.73071 11.9155 5.78961C11.9117 5.8436 11.8604 5.90322 11.8129 5.908C11.7813 5.9135 11.7546 5.89608 11.7454 5.8664ZM11.7978 6.26956C11.7898 6.23378 11.8282 6.18147 11.8631 6.18306C11.9 6.17953 11.9126 6.23191 11.8841 6.26898C11.8569 6.30988 11.8037 6.30936 11.7978 6.26956ZM11.769 5.63551C11.7539 5.60685 11.7797 5.5536 11.8146 5.54201C11.8528 5.52499 11.8817 5.56596 11.861 5.60849C11.8427 5.65452 11.7833 5.67177 11.769 5.63551ZM11.9272 5.39039C11.9045 5.41333 11.8723 5.4017 11.8753 5.37226C11.8744 5.35856 11.8841 5.34477 11.8923 5.33245C11.9061 5.32498 11.9225 5.31518 11.9337 5.32308C11.9543 5.33165 11.9505 5.37168 11.9272 5.39039ZM11.9323 6.42299C11.9149 6.40371 11.9372 6.35664 11.9659 6.35086C11.9912 6.3437 12.0071 6.37153 11.9939 6.39955C11.9821 6.42864 11.9453 6.44281 11.9323 6.42299ZM11.9604 5.89044C11.9447 5.8623 11.9703 5.80785 12.0055 5.79675C12.0441 5.77844 12.0734 5.82086 12.0518 5.86347C12.0336 5.9084 11.9746 5.92624 11.9604 5.89044ZM12.0236 6.10598C12.0079 6.08295 12.0307 6.0342 12.0611 6.02444C12.086 6.0134 12.1084 6.03061 12.106 6.05827C12.1066 6.08011 12.089 6.10169 12.072 6.11571C12.0531 6.12307 12.0317 6.12338 12.0236 6.10598ZM12.001 5.62632C11.9824 5.60367 12.0051 5.55143 12.0376 5.54099C12.0715 5.52639 12.0954 5.56518 12.0745 5.60189C12.0584 5.63575 12.0163 5.64961 12.001 5.62632ZM12.1905 5.46389C12.1724 5.48473 12.1491 5.47843 12.1438 5.45874C12.1463 5.44018 12.1576 5.41699 12.1765 5.41295C12.202 5.40511 12.2117 5.44145 12.1905 5.46389ZM12.206 6.13243C12.1909 6.13325 12.1755 6.12655 12.1785 6.10634C12.179 6.07845 12.217 6.0547 12.23 6.07363C12.2446 6.08947 12.2272 6.12183 12.206 6.13243ZM12.2077 5.80615C12.1855 5.80992 12.1734 5.78398 12.1841 5.75925C12.1888 5.74388 12.2024 5.73436 12.2141 5.72617C12.2203 5.72547 12.2265 5.72457 12.2327 5.72366C12.2422 5.72813 12.2518 5.73491 12.2521 5.74865C12.2561 5.7728 12.2304 5.80658 12.2077 5.80615Z" fill="white"/>
<path d="M12.4626 11.6673L12.4622 11.6667L12.2612 11.5161L12.4181 11.1468L12.4185 11.1457L12.4197 11.1368L12.3566 10.8144C12.3565 10.8135 12.3563 10.8126 12.3559 10.8119L12.3561 10.811L12.3535 10.8087C12.3529 10.8072 12.3516 10.8063 12.3499 10.8061L12.0852 10.6649L12.0836 10.6641L11.711 10.7599C11.7088 10.7604 11.7083 10.7609 11.7031 10.7655C11.7007 10.7676 11.6971 10.7708 11.6926 10.7749C11.684 10.7825 11.6714 10.7938 11.6551 10.8083C11.6278 10.8327 11.5897 10.8668 11.5419 10.9096C11.4605 10.9824 11.3783 11.0561 11.3774 11.0568L11.377 11.0573L11.3705 11.0644L11.37 11.0684L11.2087 11.4473L11.2083 11.4483L11.207 11.4572L11.2713 11.7791L11.2713 11.7791C11.2711 11.7803 11.2711 11.7814 11.2714 11.7824C11.2717 11.7834 11.2722 11.7843 11.2729 11.7849L11.2756 11.7873L11.5398 11.9262C11.5403 11.9271 11.5409 11.9278 11.5419 11.9282C11.5428 11.9285 11.5439 11.9286 11.545 11.9284C11.5463 11.9288 11.5477 11.9288 11.5492 11.9284L11.919 11.8334L11.9205 11.8317C11.9213 11.8313 11.9221 11.8308 11.9229 11.8301L11.9232 11.8301L12.2383 11.5474L12.4358 11.6965C12.4371 11.6976 12.4388 11.6982 12.4407 11.6983C12.4444 11.6985 12.4486 11.6974 12.4527 11.6952C12.4554 11.6936 12.4579 11.6912 12.4595 11.6884C12.4622 11.685 12.464 11.6811 12.4644 11.6774C12.4649 11.6735 12.4643 11.67 12.4626 11.6673ZM12.2886 11.1597L12.3386 10.906L12.3832 11.1354L12.2886 11.1597ZM12.3789 11.1668L12.2648 11.4369L12.2842 11.1911L12.3789 11.1668ZM11.4557 11.6771L11.52 11.8746L11.3179 11.7675L11.4557 11.6771ZM11.8884 10.9604L12.0671 10.7148L12.1366 10.9276L11.8884 10.9604ZM12.1711 10.917L12.1067 10.7195L12.3089 10.8266L12.1711 10.917ZM12.1818 10.9421L12.3187 10.8519L12.2656 11.1216L12.2651 11.1245L12.1818 10.9421ZM11.3779 11.3526L11.3782 11.3499L11.399 11.0884L11.4705 11.1028L11.52 11.1123L11.3779 11.3526ZM12.041 10.7064L11.8618 10.9527L11.7392 10.784L12.041 10.7064ZM12.2415 11.2021L12.0896 11.4586L12.0434 11.3331L12.0178 11.2596L12.2415 11.2021L12.2415 11.2021ZM12.0223 11.2282L12.1567 10.9762L12.2459 11.1707L12.0223 11.2282ZM11.8843 10.993L12.1351 10.9596L11.9982 11.216L11.8843 10.993ZM11.8408 11.5239L11.9886 11.2855L12.0617 11.4879L11.802 11.5857L11.8408 11.5239ZM11.662 11.3208L11.8534 11.0124L11.9107 11.1272L11.9692 11.2418L11.662 11.3208ZM11.9648 11.2732L11.7744 11.5814L11.716 11.4668L11.6577 11.3522L11.9648 11.2732ZM11.7899 11.0649L11.6393 11.3082L11.5662 11.1058L11.8249 11.0083L11.7899 11.0649ZM11.7425 11.6011L11.4927 11.6342L11.5958 11.4405L11.6296 11.3778L11.7425 11.6011ZM11.3864 11.3917L11.5382 11.1353L11.584 11.264L11.6099 11.3342L11.3864 11.3917ZM11.6056 11.3656L11.4712 11.6176L11.382 11.4231L11.6056 11.3656ZM12.249 11.2412L12.2489 11.2419L12.2278 11.5056L12.1563 11.4913L12.1067 11.4817L12.249 11.2412ZM11.4168 11.056L11.6648 10.8331L11.5388 11.0796L11.4168 11.056ZM11.445 11.6519L11.3081 11.7421L11.3615 11.4702L11.3616 11.4694L11.445 11.6519ZM11.7661 11.641L11.8876 11.8101L11.5859 11.8876L11.7661 11.641ZM12.21 11.5381L11.962 11.7609L12.088 11.5145L12.21 11.5381ZM11.5728 11.0726L11.7087 10.807L11.8298 10.9755L11.5728 11.0726ZM11.2479 11.4273L11.362 11.1571L11.3426 11.403L11.2479 11.4273ZM11.3382 11.4343L11.2882 11.688L11.2435 11.4587L11.3382 11.4343H11.3382ZM11.7384 11.6336L11.5597 11.8792L11.4902 11.6664L11.7384 11.6336ZM12.054 11.5215L11.9181 11.7871L11.7969 11.6185L12.054 11.5215Z" fill="white"/>
<path d="M50.8438 11.9994V7.09029H51.9496V7.92445H52.0071C52.1094 7.6432 52.2788 7.42374 52.5153 7.26607C52.7518 7.10627 53.0341 7.02637 53.3622 7.02637C53.6946 7.02637 53.9748 7.10733 54.2028 7.26926C54.4329 7.42907 54.5948 7.64746 54.6886 7.92445H54.7397C54.8484 7.65172 55.0316 7.43439 55.2894 7.27246C55.5494 7.1084 55.8572 7.02637 56.2131 7.02637C56.6648 7.02637 57.0334 7.16912 57.3189 7.45463C57.6044 7.74015 57.7472 8.15669 57.7472 8.70428V11.9994H56.587V8.88326C56.587 8.57857 56.506 8.35591 56.3441 8.21529C56.1822 8.07253 55.984 8.00115 55.7496 8.00115C55.4705 8.00115 55.2521 8.08851 55.0945 8.26323C54.9389 8.43581 54.8612 8.6606 54.8612 8.93759V11.9994H53.7266V8.83532C53.7266 8.58176 53.6499 8.37935 53.4964 8.22807C53.3452 8.07679 53.147 8.00115 52.902 8.00115C52.7358 8.00115 52.5845 8.04377 52.4482 8.12899C52.3118 8.21209 52.2031 8.33034 52.1222 8.48375C52.0412 8.63503 52.0007 8.81188 52.0007 9.01429V11.9994H50.8438Z" fill="white"/>
<path d="M48.8594 9.93528V7.09082H50.0163V11.9999H48.8945V11.1274H48.8434C48.7326 11.4023 48.5504 11.627 48.2969 11.8018C48.0455 11.9765 47.7354 12.0638 47.3668 12.0638C47.0451 12.0638 46.7607 11.9925 46.5135 11.8497C46.2685 11.7048 46.0767 11.4949 45.9382 11.2201C45.7997 10.9431 45.7305 10.6086 45.7305 10.2165V7.09082H46.8874V10.0376C46.8874 10.3486 46.9727 10.5958 47.1431 10.779C47.3136 10.9623 47.5373 11.0539 47.8143 11.0539C47.9847 11.0539 48.1499 11.0123 48.3097 10.9292C48.4695 10.8461 48.6005 10.7226 48.7028 10.5585C48.8072 10.3923 48.8594 10.1846 48.8594 9.93528Z" fill="white"/>
<path d="M43.7418 11.9996V7.09047H44.8988V11.9996H43.7418ZM44.3235 6.39373C44.1403 6.39373 43.9826 6.33301 43.8505 6.21156C43.7184 6.08798 43.6523 5.9399 43.6523 5.76731C43.6523 5.5926 43.7184 5.44451 43.8505 5.32306C43.9826 5.19949 44.1403 5.1377 44.3235 5.1377C44.5089 5.1377 44.6665 5.19949 44.7965 5.32306C44.9286 5.44451 44.9947 5.5926 44.9947 5.76731C44.9947 5.9399 44.9286 6.08798 44.7965 6.21156C44.6665 6.33301 44.5089 6.39373 44.3235 6.39373Z" fill="white"/>
<path d="M40.5352 11.9999V7.09082H41.657V7.909H41.7081C41.7976 7.62562 41.951 7.40723 42.1683 7.25382C42.3878 7.09828 42.6381 7.02051 42.9194 7.02051C42.9833 7.02051 43.0547 7.0237 43.1335 7.0301C43.2145 7.03436 43.2816 7.04181 43.3349 7.05247V8.11674C43.2859 8.0997 43.2081 8.08478 43.1016 8.072C42.9972 8.05708 42.896 8.04963 42.7979 8.04963C42.587 8.04963 42.3974 8.09544 42.229 8.18706C42.0629 8.27654 41.9318 8.40119 41.8359 8.56099C41.7401 8.72079 41.6921 8.9051 41.6921 9.1139V11.9999H40.5352Z" fill="white"/>
<path d="M37.7319 12.0953C37.2397 12.0953 36.8146 11.993 36.4567 11.7884C36.1009 11.5818 35.8271 11.2899 35.6353 10.9127C35.4435 10.5335 35.3477 10.0871 35.3477 9.5736C35.3477 9.06863 35.4435 8.62544 35.6353 8.24405C35.8292 7.86053 36.0998 7.56223 36.4471 7.34917C36.7944 7.13397 37.2024 7.02637 37.6712 7.02637C37.9737 7.02637 38.2592 7.07537 38.5277 7.17338C38.7983 7.26926 39.0369 7.41841 39.2436 7.62083C39.4524 7.82324 39.6165 8.08105 39.7358 8.39426C39.8551 8.70534 39.9148 9.07608 39.9148 9.50648V9.86124H35.891V9.08141H38.8058C38.8036 8.85982 38.7557 8.66273 38.6619 8.49015C38.5682 8.31543 38.4371 8.178 38.2688 8.07786C38.1026 7.97772 37.9087 7.92765 37.6871 7.92765C37.4506 7.92765 37.2429 7.98517 37.0639 8.10023C36.8849 8.21316 36.7454 8.3623 36.6452 8.54767C36.5472 8.73091 36.4972 8.93226 36.495 9.15172V9.83247C36.495 10.118 36.5472 10.363 36.6516 10.5676C36.756 10.77 36.902 10.9255 37.0895 11.0342C37.277 11.1407 37.4964 11.194 37.7479 11.194C37.9162 11.194 38.0685 11.1705 38.2049 11.1237C38.3413 11.0747 38.4595 11.0033 38.5597 10.9095C38.6598 10.8158 38.7354 10.6997 38.7866 10.5612L39.8668 10.6826C39.7987 10.9681 39.6687 11.2174 39.4769 11.4305C39.2873 11.6414 39.0444 11.8055 38.7482 11.9227C38.4521 12.0377 38.1133 12.0953 37.7319 12.0953Z" fill="white"/>
<path d="M31.5554 9.12314V11.9996H30.3984V5.4541H31.5298V7.92463H31.5874C31.7024 7.64764 31.8803 7.42924 32.1211 7.26944C32.364 7.10751 32.6729 7.02655 33.0479 7.02655C33.3888 7.02655 33.6861 7.09792 33.9396 7.24068C34.1932 7.38343 34.3892 7.59224 34.5277 7.8671C34.6683 8.14196 34.7386 8.47754 34.7386 8.87385V11.9996H33.5817V9.05282C33.5817 8.72257 33.4964 8.46582 33.326 8.28258C33.1577 8.09721 32.9212 8.00453 32.6165 8.00453C32.4119 8.00453 32.2287 8.04927 32.0668 8.13876C31.907 8.22612 31.7812 8.35289 31.6896 8.51909C31.6001 8.68528 31.5554 8.88663 31.5554 9.12314Z" fill="white"/>
<path d="M25.1367 13.8403V7.09029H26.2745V7.90208H26.3416C26.4013 7.78276 26.4854 7.65598 26.5941 7.52175C26.7028 7.38539 26.8498 7.26926 27.0352 7.17338C27.2205 7.07537 27.457 7.02637 27.7447 7.02637C28.1239 7.02637 28.4659 7.12331 28.7706 7.3172C29.0774 7.50897 29.3203 7.79341 29.4993 8.17054C29.6804 8.54554 29.771 9.00577 29.771 9.55122C29.771 10.0903 29.6825 10.5484 29.5057 10.9255C29.3288 11.3026 29.0881 11.5903 28.7834 11.7884C28.4787 11.9866 28.1335 12.0857 27.7479 12.0857C27.4666 12.0857 27.2333 12.0388 27.0479 11.945C26.8626 11.8513 26.7134 11.7384 26.6005 11.6063C26.4897 11.472 26.4034 11.3453 26.3416 11.2259H26.2937V13.8403H25.1367ZM26.2713 9.54483C26.2713 9.8623 26.3161 10.1404 26.4055 10.379C26.4972 10.6176 26.6282 10.8041 26.7987 10.9383C26.9712 11.0704 27.18 11.1365 27.4251 11.1365C27.6808 11.1365 27.8949 11.0683 28.0675 10.9319C28.2401 10.7934 28.37 10.6048 28.4574 10.3662C28.5469 10.1254 28.5916 9.85165 28.5916 9.54483C28.5916 9.24015 28.5479 8.96955 28.4606 8.73304C28.3732 8.49654 28.2433 8.31117 28.0707 8.17693C27.8981 8.0427 27.6829 7.97559 27.4251 7.97559C27.1779 7.97559 26.968 8.04057 26.7955 8.17054C26.6229 8.30051 26.4918 8.48269 26.4023 8.71706C26.315 8.95144 26.2713 9.22736 26.2713 9.54483Z" fill="white"/>
<path d="M23.2585 7.25311C23.2287 6.97399 23.103 6.75666 22.8814 6.60112C22.6619 6.44558 22.3764 6.36781 22.0249 6.36781C21.7777 6.36781 21.5657 6.4051 21.3888 6.47967C21.212 6.55424 21.0767 6.65545 20.983 6.78329C20.8892 6.91113 20.8413 7.05709 20.8391 7.22115C20.8391 7.35751 20.87 7.47576 20.9318 7.57591C20.9957 7.67605 21.082 7.76128 21.1907 7.83159C21.2994 7.89977 21.4197 7.9573 21.5518 8.00417C21.6839 8.05105 21.8171 8.09047 21.9513 8.12243L22.565 8.27583C22.8121 8.33336 23.0497 8.41113 23.2777 8.50914C23.5078 8.60716 23.7134 8.73074 23.8945 8.87988C24.0778 9.02903 24.2227 9.20907 24.3292 9.42001C24.4357 9.63095 24.489 9.87811 24.489 10.1615C24.489 10.545 24.391 10.8827 24.195 11.1746C23.9989 11.4644 23.7156 11.6913 23.3448 11.8554C22.9762 12.0173 22.5298 12.0983 22.0057 12.0983C21.4964 12.0983 21.0543 12.0194 20.6793 11.8618C20.3065 11.7041 20.0146 11.474 19.8036 11.1714C19.5948 10.8689 19.4819 10.5003 19.4648 10.0656H20.6314C20.6484 10.2936 20.7187 10.4832 20.8423 10.6345C20.9659 10.7858 21.1268 10.8987 21.3249 10.9733C21.5252 11.0479 21.7489 11.0851 21.9961 11.0851C22.2539 11.0851 22.4798 11.0468 22.6737 10.9701C22.8697 10.8912 23.0231 10.7826 23.1339 10.6441C23.2447 10.5035 23.3011 10.3394 23.3033 10.1519C23.3011 9.98145 23.2511 9.84082 23.1531 9.73003C23.055 9.6171 22.9176 9.52335 22.7408 9.44878C22.5661 9.37207 22.3615 9.30389 22.1271 9.24423L21.3825 9.05247C20.8434 8.91397 20.4173 8.7041 20.104 8.42285C19.793 8.13947 19.6374 7.76341 19.6374 7.29466C19.6374 6.909 19.7418 6.57129 19.9506 6.28152C20.1616 5.99174 20.4482 5.76696 20.8104 5.60716C21.1726 5.44522 21.5827 5.36426 22.0408 5.36426C22.5053 5.36426 22.9123 5.44522 23.2617 5.60716C23.6133 5.76696 23.8892 5.98961 24.0895 6.27512C24.2898 6.5585 24.3931 6.8845 24.3995 7.25311H23.2585Z" fill="white"/>
<defs>
<linearGradient id="svg358550184_49629_paint0_linear_1048_2608" x1="3.2596" y1="1.59228" x2="14.1283" y2="6.6345" gradientUnits="userSpaceOnUse">
<stop stop-color="#87F2E7"/>
<stop offset="1" stop-color="#2E37F2"/>
</linearGradient>
<linearGradient id="svg358550184_49629_paint1_linear_1048_2608" x1="2.07343" y1="4.1456" x2="12.9421" y2="9.18785" gradientUnits="userSpaceOnUse">
<stop stop-color="#87F2E7"/>
<stop offset="1" stop-color="#2E37F2"/>
</linearGradient>
<linearGradient id="svg358550184_49629_paint2_linear_1048_2608" x1="0.762375" y1="6.97248" x2="11.6311" y2="12.0147" gradientUnits="userSpaceOnUse">
<stop stop-color="#87F2E7"/>
<stop offset="1" stop-color="#2E37F2"/>
</linearGradient>
<linearGradient id="svg358550184_49629_paint3_linear_1048_2608" x1="0.718741" y1="6.77541" x2="15.2072" y2="7.57046" gradientUnits="userSpaceOnUse">
<stop stop-color="#87F2E7"/>
<stop offset="1" stop-color="#2E37F2"/>
</linearGradient>
<linearGradient id="svg358550184_49629_paint4_linear_1048_2608" x1="-0.356445" y1="9.38182" x2="10.5122" y2="14.4241" gradientUnits="userSpaceOnUse">
<stop stop-color="#87F2E7"/>
<stop offset="1" stop-color="#2E37F2"/>
</linearGradient>
<linearGradient id="svg358550184_49629_paint5_linear_1048_2608" x1="3.02912" y1="2.08676" x2="13.8978" y2="7.12901" gradientUnits="userSpaceOnUse">
<stop stop-color="#87F2E7"/>
<stop offset="1" stop-color="#2E37F2"/>
</linearGradient>
<linearGradient id="svg358550184_49629_paint6_linear_1048_2608" x1="1.7765" y1="4.7962" x2="12.6452" y2="9.83845" gradientUnits="userSpaceOnUse">
<stop stop-color="#87F2E7"/>
<stop offset="1" stop-color="#2E37F2"/>
</linearGradient>
<linearGradient id="svg358550184_49629_paint7_linear_1048_2608" x1="0.451103" y1="7.6452" x2="11.3198" y2="12.6874" gradientUnits="userSpaceOnUse">
<stop stop-color="#87F2E7"/>
<stop offset="1" stop-color="#2E37F2"/>
</linearGradient>
<linearGradient id="svg358550184_49629_paint8_linear_1048_2608" x1="-0.60661" y1="9.93033" x2="10.262" y2="14.9726" gradientUnits="userSpaceOnUse">
<stop stop-color="#87F2E7"/>
<stop offset="1" stop-color="#2E37F2"/>
</linearGradient>
<linearGradient id="svg358550184_49629_paint9_linear_1048_2608" x1="0.740605" y1="7.50985" x2="15.3301" y2="13.1728" gradientUnits="userSpaceOnUse">
<stop stop-color="#87F2E7"/>
<stop offset="1" stop-color="#2E37F2"/>
</linearGradient>
<linearGradient id="svg358550184_49629_paint10_linear_1048_2608" x1="2.53772" y1="3.15403" x2="13.4064" y2="8.19628" gradientUnits="userSpaceOnUse">
<stop stop-color="#87F2E7"/>
<stop offset="1" stop-color="#2E37F2"/>
</linearGradient>
<linearGradient id="svg358550184_49629_paint11_linear_1048_2608" x1="2.91782" y1="2.33211" x2="13.7864" y2="7.37433" gradientUnits="userSpaceOnUse">
<stop stop-color="#87F2E7"/>
<stop offset="1" stop-color="#2E37F2"/>
</linearGradient>
<linearGradient id="svg358550184_49629_paint12_linear_1048_2608" x1="0.946487" y1="2.6791" x2="15.435" y2="3.47415" gradientUnits="userSpaceOnUse">
<stop stop-color="#87F2E7"/>
<stop offset="1" stop-color="#2E37F2"/>
</linearGradient>
<linearGradient id="svg358550184_49629_paint13_linear_1048_2608" x1="1.65715" y1="5.04254" x2="12.5259" y2="10.0848" gradientUnits="userSpaceOnUse">
<stop stop-color="#87F2E7"/>
<stop offset="1" stop-color="#2E37F2"/>
</linearGradient>
<linearGradient id="svg358550184_49629_paint14_linear_1048_2608" x1="-0.013631" y1="8.65159" x2="10.855" y2="13.6939" gradientUnits="userSpaceOnUse">
<stop stop-color="#87F2E7"/>
<stop offset="1" stop-color="#2E37F2"/>
</linearGradient>
<linearGradient id="svg358550184_49629_paint15_linear_1048_2608" x1="0.383766" y1="7.7918" x2="11.2525" y2="12.8341" gradientUnits="userSpaceOnUse">
<stop stop-color="#87F2E7"/>
<stop offset="1" stop-color="#2E37F2"/>
</linearGradient>
<linearGradient id="svg358550184_49629_paint16_linear_1048_2608" x1="1.07706" y1="6.30281" x2="11.9457" y2="11.3451" gradientUnits="userSpaceOnUse">
<stop stop-color="#87F2E7"/>
<stop offset="1" stop-color="#2E37F2"/>
</linearGradient>
<linearGradient id="svg358550184_49629_paint17_linear_1048_2608" x1="-0.150987" y1="8.95122" x2="10.7177" y2="13.9934" gradientUnits="userSpaceOnUse">
<stop stop-color="#87F2E7"/>
<stop offset="1" stop-color="#2E37F2"/>
</linearGradient>
</defs>
</svg>