<svg width="24" height="25" viewBox="0 0 24 25" fill="none" xmlns="http://www.w3.org/2000/svg" id="svg466957695_1611">
<path fill-rule="evenodd" clip-rule="evenodd" d="M4.57466 4.626C5.30957 5.22309 5.58527 5.17754 6.96535 5.08545L19.9758 4.30424C20.2517 4.30424 20.0223 4.02896 19.9302 3.98321L17.7695 2.42115C17.3554 2.09971 16.8039 1.7316 15.7467 1.82369L3.14865 2.74255C2.6892 2.7881 2.59744 3.01783 2.7804 3.20195L4.57466 4.626ZM5.35578 7.65808V21.3473C5.35578 22.083 5.72342 22.3583 6.55089 22.3127L20.8494 21.4854C21.6772 21.4399 21.7695 20.9338 21.7695 20.3362V6.73881C21.7695 6.14213 21.5399 5.82037 21.0331 5.8663L6.09112 6.73881C5.53967 6.78515 5.35578 7.06099 5.35578 7.65808ZM19.4712 8.3924C19.5628 8.80625 19.4712 9.21973 19.0565 9.26626L18.3676 9.40352V19.5098C17.7695 19.8313 17.2179 20.0151 16.7583 20.0151C16.0224 20.0151 15.8381 19.7852 15.2868 19.0965L10.7805 12.0221V18.8668L12.2065 19.1886C12.2065 19.1886 12.2065 20.0151 11.056 20.0151L7.88434 20.1991C7.79221 20.0151 7.88434 19.5561 8.20606 19.4641L9.03372 19.2347V10.1847L7.88458 10.0926C7.7924 9.67876 8.02194 9.08204 8.66607 9.03574L12.0685 8.80639L16.7583 15.9729V9.6332L15.5625 9.49598C15.4708 8.99005 15.8381 8.62268 16.2979 8.57713L19.4712 8.3924ZM2.0909 1.5023L15.1949 0.53728C16.804 0.399268 17.2181 0.491726 18.2295 1.22641L22.4124 4.16641C23.1026 4.67197 23.3327 4.80961 23.3327 5.36073V21.4854C23.3327 22.4959 22.9645 23.0936 21.6775 23.185L6.45983 24.104C5.49365 24.15 5.03383 24.0124 4.52785 23.3688L1.44746 19.3722C0.895556 18.6365 0.666016 18.0861 0.666016 17.4422V3.10954C0.666016 2.28314 1.03426 1.59378 2.0909 1.5023Z" fill="black"/>
</svg>